<?xml version="1.0" encoding="iso-8859-1"?>
<!-- Generator: Adobe Illustrator 19.0.0, SVG Export Plug-In . SVG Version: 6.00 Build 0)  -->
<svg version="1.1" id="Capa_1" xmlns="http://www.w3.org/2000/svg" xmlns:xlink="http://www.w3.org/1999/xlink" x="0px" y="0px"
	 viewBox="0 0 512 512" style="enable-background:new 0 0 512 512;" xml:space="preserve">
<g>
	<g>
		<path d="M352,213.333H160c-11.776,0-21.333,9.536-21.333,21.333c0,11.797,9.557,21.333,21.333,21.333h192
			c11.776,0,21.333-9.536,21.333-21.333C373.333,222.869,363.776,213.333,352,213.333z"/>
	</g>
</g>
<g>
	<g>
		<path d="M352,320H160c-11.776,0-21.333,9.536-21.333,21.333c0,11.797,9.557,21.333,21.333,21.333h192
			c11.776,0,21.333-9.536,21.333-21.333C373.333,329.536,363.776,320,352,320z"/>
	</g>
</g>
<g>
	<g>
		<path d="M394.667,64h-22.421c-5.227-36.096-36.075-64-73.579-64h-85.333c-37.504,0-68.352,27.904-73.579,64h-22.421
			c-35.285,0-64,28.715-64,64v320c0,35.285,28.715,64,64,64h277.333c35.285,0,64-28.715,64-64V128
			C458.667,92.715,429.952,64,394.667,64z M213.333,42.667h85.333c17.643,0,32,14.357,32,32c0,17.643-14.357,32-32,32h-85.333
			c-17.643,0-32-14.357-32-32C181.333,57.024,195.691,42.667,213.333,42.667z M416,448c0,11.776-9.579,21.333-21.333,21.333H117.333
			C105.579,469.333,96,459.776,96,448V128c0-11.776,9.579-21.333,21.333-21.333h28.821c12.032,25.131,37.504,42.667,67.179,42.667
			h85.333c29.675,0,55.147-17.536,67.179-42.667h28.821c11.755,0,21.333,9.557,21.333,21.333V448z"/>
	</g>
</g>
<g>
</g>
<g>
</g>
<g>
</g>
<g>
</g>
<g>
</g>
<g>
</g>
<g>
</g>
<g>
</g>
<g>
</g>
<g>
</g>
<g>
</g>
<g>
</g>
<g>
</g>
<g>
</g>
<g>
</g>
</svg>
