<svg height="512pt" viewBox="0 0 512 512" width="512pt" xmlns="http://www.w3.org/2000/svg"><path d="m416 512h-320c-53.023438 0-96-42.976562-96-96v-320c0-53.023438 42.976562-96 96-96h320c53.023438 0 96 42.976562 96 96v320c0 53.023438-42.976562 96-96 96zm0 0" fill="#ffe6e2"/><path d="m271.089844 256 64.109375-64.113281c4.160156-4.160157 4.160156-10.910157 0-15.085938-4.160157-4.175781-10.910157-4.160156-15.085938 0l-64.113281 64.109375-64.113281-64.109375c-4.160157-4.160156-10.910157-4.160156-15.085938 0-4.175781 4.160157-4.160156 10.910157 0 15.085938l64.109375 64.113281-64.109375 64.113281c-4.160156 4.160157-4.160156 10.910157 0 15.085938 2.078125 2.082031 4.816407 3.121093 7.535157 3.121093 2.734374 0 5.457031-1.039062 7.535156-3.121093l64.128906-64.109375 64.113281 64.109375c2.078125 2.082031 4.816407 3.121093 7.535157 3.121093s5.457031-1.039062 7.535156-3.121093c4.160156-4.160157 4.160156-10.910157 0-15.085938zm0 0" fill="#fc573b"/></svg>