<?xml version="1.0" encoding="UTF-8"?><svg version="1.1" id="Layer_1" xmlns="http://www.w3.org/2000/svg" xmlns:xlink="http://www.w3.org/1999/xlink" x="0px" y="0px" viewBox="0 0 600 600" enable-background="new 0 0 600 600" xml:space="preserve" width="600px" height="600px">
<g>
	<g id="Layer_1_1_">
		<g opacity="0.47">
			<path fill="#76D1FF" d="M449.658,200.181l103-27.6c12.077-3.236,19.243-15.649,16.007-27.726l0,0
				c-3.236-12.077-15.649-19.243-27.726-16.007l-162.293,43.484c-12.077,3.236-24.49-3.931-27.726-16.007c0,0,0,0,0-0.001l0,0
				c-3.235-12.076,3.931-24.487,16.006-27.724l73.874-19.8c12.077-3.235,19.245-15.647,16.011-27.724c0-0.001,0-0.001-0.001-0.002
				l0,0c-3.236-12.077-15.649-19.243-27.726-16.007L53.8,165.62c-12.076,3.235-19.243,15.647-16.008,27.724c0,0,0,0.001,0,0.001l0,0
				c3.233,12.077,15.645,19.247,27.722,16.014c0.002-0.001,0.004-0.001,0.006-0.002l58.433-15.657
				c12.077-3.235,24.49,3.931,27.726,16.008l0,0c3.236,12.076-3.931,24.489-16.007,27.725c0,0-0.001,0-0.001,0l-100.02,26.8
				c-12.077,3.236-19.243,15.649-16.008,27.726l0,0c3.236,12.077,15.649,19.244,27.725,16.008c0,0,0,0,0.001,0l62.42-16.726
				c12.077-3.235,24.49,3.931,27.726,16.008l0,0c3.236,12.076-3.931,24.489-16.007,27.725c0,0-0.001,0-0.001,0l-4.429,1.187
				c-12.077,3.236-19.243,15.649-16.008,27.726c0.001,0.004,0.002,0.009,0.004,0.013l0,0c3.235,12.077,15.648,19.244,27.725,16.009
				c0,0,0.001,0,0.001,0l4.2-1.125c12.076-3.236,24.489,3.931,27.725,16.007c0,0,0,0.001,0,0.001l0,0
				c3.236,12.076-3.929,24.489-16.005,27.725c-0.001,0-0.001,0-0.002,0.001l-62.19,16.663
				c-12.077,3.236-19.243,15.649-16.007,27.726l0,0c3.236,12.077,15.649,19.243,27.726,16.007l113.637-30.449
				c12.077-3.236,24.49,3.931,27.726,16.007c0,0,0,0,0,0.001l0,0c3.236,12.077-3.93,24.49-16.007,27.726
				c-0.001,0-0.002,0.001-0.003,0.001l-18.212,4.879c-12.076,3.237-19.242,15.65-16.007,27.726l0,0
				c3.235,12.076,15.648,19.243,27.724,16.008c0.001,0,0.001,0,0.002,0l289.35-77.531c12.077-3.236,19.243-15.649,16.007-27.726l0,0
				c-3.236-12.077-15.649-19.244-27.725-16.008c0,0,0,0-0.001,0l-8.512,2.281c-12.075,3.236-24.488-3.928-27.726-16.003l0,0
				c-3.235-12.077,3.933-24.49,16.009-27.725c0.001,0,0.001,0,0.001,0l55.971-15c12.077-3.236,19.244-15.649,16.008-27.725
				c0,0,0,0,0-0.001l0,0c-3.236-12.077-15.649-19.244-27.725-16.008c0,0,0,0-0.001,0L435.4,344.629
				c-12.077,3.236-24.49-3.931-27.726-16.007c0,0,0,0,0-0.001l0,0c-3.232-12.075,3.935-24.485,16.009-27.721l56.195-15.057
				c12.076-3.235,19.243-15.648,16.008-27.724c0-0.001,0-0.001-0.001-0.002l0,0c-3.23-12.078-15.64-19.25-27.717-16.019
				c-0.003,0.001-0.006,0.002-0.009,0.002l-6.781,1.817c-12.077,3.236-24.49-3.93-27.726-16.007l0,0
				c-3.238-12.076,3.927-24.49,16.003-27.728C449.656,200.182,449.657,200.181,449.658,200.181z"/>
			<path fill="#76D1FF" d="M538.432,223.211l5.957-1.597c12.078-3.238,24.493,3.928,27.732,16.005l0.001,0.004
				c3.238,12.078-3.928,24.493-16.005,27.732l-5.957,1.597c-12.078,3.238-24.493-3.928-27.732-16.005l-0.001-0.004
				C519.188,238.865,526.354,226.449,538.432,223.211z"/>
		</g>
		<g opacity="0.33">
			<path fill="#4E4E4E" stroke="#000000" stroke-linecap="round" stroke-linejoin="round" d="M191.95,261.845h232
				c7.732,0,14,6.268,14,14v17.478c0,7.732-6.268,14-14,14h-232c-7.732,0-14-6.268-14-14v-17.478
				C177.95,268.113,184.218,261.845,191.95,261.845z"/>
			<path fill="#4E4E4E" d="M191.95,261.845h232c7.732,0,14,6.268,14,14v17.478c0,7.732-6.268,14-14,14h-232c-7.732,0-14-6.268-14-14
				v-17.478C177.95,268.113,184.218,261.845,191.95,261.845z"/>
			<path opacity="0.17" fill="#4E4E4E" enable-background="new    " d="M191.95,261.845h232c7.732,0,14,6.268,14,14v20.438
				c0,4.721-3.828,8.549-8.549,8.549h0H186.5c-4.721,0-8.549-3.828-8.549-8.549l0,0v-20.438
				C177.951,268.113,184.218,261.846,191.95,261.845z"/>
			<path fill="#4E4E4E" stroke="#46505C" stroke-width="4" stroke-linecap="round" stroke-linejoin="round" d="M191.95,261.845h232
				c7.732,0,14,6.268,14,14v17.478c0,7.732-6.268,14-14,14h-232c-7.732,0-14-6.268-14-14v-17.478
				C177.95,268.113,184.218,261.845,191.95,261.845z"/>
			<rect x="195.95" y="266.969" fill="#4E4E4E" width="224" height="34.941"/>
			
				<rect x="195.95" y="266.969" fill="#4E4E4E" stroke="#46505C" stroke-linecap="round" stroke-linejoin="round" width="224" height="34.941"/>
			<path fill="#4E4E4E" d="M191.951,307.323h232c7.732,0,14,6.268,14,14v144c0,7.732-6.268,14-14,14h-232c-7.732,0-14-6.268-14-14
				v-144C177.951,313.591,184.219,307.323,191.951,307.323z"/>
			<path fill="#4E4E4E" stroke="#E6F3FF" stroke-width="2" stroke-miterlimit="10" d="M433.951,321.323v144c0,5.523-4.477,10-10,10
				h-232c-5.523,0-10-4.477-10-10v-144c0-5.523,4.477-10,10-10h232C429.474,311.323,433.951,315.8,433.951,321.323z"/>
			<path fill="#4E4E4E" d="M291.9,471.5H324c2.209,0,4,1.791,4,4v3.82l0,0h-40.1l0,0v-3.82C287.9,473.291,289.691,471.5,291.9,471.5
				z"/>
			<path fill="#4E4E4E" stroke="#46505C" stroke-width="4" stroke-linecap="round" stroke-linejoin="round" d="M191.951,307.323h232
				c7.732,0,14,6.268,14,14v144c0,7.732-6.268,14-14,14h-232c-7.732,0-14-6.268-14-14v-144
				C177.951,313.591,184.219,307.323,191.951,307.323z"/>
			<path fill="#4E4E4E" d="M195.95,320.743h224c1.657,0,3,1.343,3,3v86c0,1.657-1.343,3-3,3h-224c-1.657,0-3-1.343-3-3v-86
				C192.95,322.086,194.293,320.743,195.95,320.743z"/>
			<path fill="#4E4E4E" stroke="#626C84" stroke-linecap="round" stroke-linejoin="round" d="M225.035,390.243h12
				c0.552,0,1,0.448,1,1v12c0,0.552-0.448,1-1,1h-12c-0.552,0-1-0.448-1-1v-12C224.035,390.691,224.483,390.243,225.035,390.243z"/>
			<path fill="#4E4E4E" stroke="#626C84" stroke-linecap="round" stroke-linejoin="round" d="M203.396,390.243h12
				c0.552,0,1,0.448,1,1v12c0,0.552-0.448,1-1,1h-12c-0.552,0-1-0.448-1-1v-12C202.396,390.691,202.844,390.243,203.396,390.243z"/>
			<path fill="#4E4E4E" stroke="#626C84" stroke-linecap="round" stroke-linejoin="round" d="M246.673,390.243h98.554
				c0.552,0,1,0.448,1,1v12c0,0.552-0.448,1-1,1h-98.554c-0.552,0-1-0.448-1-1v-12C245.673,390.691,246.121,390.243,246.673,390.243
				z"/>
			<path fill="#4E4E4E" stroke="#626C84" stroke-linecap="round" stroke-linejoin="round" d="M354.866,390.243h12
				c0.552,0,1,0.448,1,1v12c0,0.552-0.448,1-1,1h-12c-0.552,0-1-0.448-1-1v-12C353.866,390.691,354.314,390.243,354.866,390.243z"/>
			<path fill="#4E4E4E" stroke="#626C84" stroke-linecap="round" stroke-linejoin="round" d="M390.505,398.118h8
				c0.552,0,1,0.448,1,1v4.125c0,0.552-0.448,1-1,1h-8c-0.552,0-1-0.448-1-1v-4.125
				C389.505,398.566,389.953,398.118,390.505,398.118z"/>
			<path fill="#4E4E4E" stroke="#626C84" stroke-linecap="round" stroke-linejoin="round" d="M390.505,390.243h8
				c0.552,0,1,0.448,1,1v4.125c0,0.552-0.448,1-1,1h-8c-0.552,0-1-0.448-1-1v-4.125
				C389.505,390.691,389.953,390.243,390.505,390.243z"/>
			<path fill="#4E4E4E" stroke="#626C84" stroke-linecap="round" stroke-linejoin="round" d="M404.505,398.118h8
				c0.552,0,1,0.448,1,1v4.125c0,0.552-0.448,1-1,1h-8c-0.552,0-1-0.448-1-1v-4.125
				C403.505,398.566,403.953,398.118,404.505,398.118z"/>
			<path fill="#4E4E4E" stroke="#626C84" stroke-linecap="round" stroke-linejoin="round" d="M376.505,398.118h8
				c0.552,0,1,0.448,1,1v4.125c0,0.552-0.448,1-1,1h-8c-0.552,0-1-0.448-1-1v-4.125
				C375.505,398.566,375.953,398.118,376.505,398.118z"/>
			<path fill="#4E4E4E" stroke="#626C84" stroke-linecap="round" stroke-linejoin="round" d="M203.396,370.323h31.639
				c0.552,0,1,0.448,1,1v12c0,0.552-0.448,1-1,1h-31.639c-0.552,0-1-0.448-1-1v-12C202.396,370.771,202.844,370.323,203.396,370.323
				z"/>
			<path fill="#4E4E4E" stroke="#626C84" stroke-linecap="round" stroke-linejoin="round" d="M244.854,370.323h12
				c0.552,0,1,0.448,1,1v12c0,0.552-0.448,1-1,1h-12c-0.552,0-1-0.448-1-1v-12C243.854,370.771,244.302,370.323,244.854,370.323z"/>
			<path fill="#4E4E4E" stroke="#626C84" stroke-linecap="round" stroke-linejoin="round" d="M266.493,370.323h12
				c0.552,0,1,0.448,1,1v12c0,0.552-0.448,1-1,1h-12c-0.552,0-1-0.448-1-1v-12C265.493,370.771,265.941,370.323,266.493,370.323z"/>
			<path fill="#4E4E4E" stroke="#626C84" stroke-linecap="round" stroke-linejoin="round" d="M288.131,370.323h12
				c0.552,0,1,0.448,1,1v12c0,0.552-0.448,1-1,1h-12c-0.552,0-1-0.448-1-1v-12C287.131,370.771,287.579,370.323,288.131,370.323z"/>
			<path fill="#4E4E4E" stroke="#626C84" stroke-linecap="round" stroke-linejoin="round" d="M309.77,370.323h12
				c0.552,0,1,0.448,1,1v12c0,0.552-0.448,1-1,1h-12c-0.552,0-1-0.448-1-1v-12C308.77,370.771,309.218,370.323,309.77,370.323z"/>
			<path fill="#4E4E4E" stroke="#626C84" stroke-linecap="round" stroke-linejoin="round" d="M331.408,370.323h12
				c0.552,0,1,0.448,1,1v12c0,0.552-0.448,1-1,1h-12c-0.552,0-1-0.448-1-1v-12C330.408,370.771,330.856,370.323,331.408,370.323z"/>
			<path fill="#4E4E4E" stroke="#626C84" stroke-linecap="round" stroke-linejoin="round" d="M353.047,370.323h12
				c0.552,0,1,0.448,1,1v12c0,0.552-0.448,1-1,1h-12c-0.552,0-1-0.448-1-1v-12C352.047,370.771,352.495,370.323,353.047,370.323z"/>
			<path fill="#4E4E4E" stroke="#626C84" stroke-linecap="round" stroke-linejoin="round" d="M376.505,370.323h36
				c0.552,0,1,0.448,1,1v12c0,0.552-0.448,1-1,1h-36c-0.552,0-1-0.448-1-1v-12C375.505,370.771,375.953,370.323,376.505,370.323z"/>
			<path fill="#4E4E4E" stroke="#626C84" stroke-linecap="round" stroke-linejoin="round" d="M237.035,349.843h12
				c0.552,0,1,0.448,1,1v12c0,0.552-0.448,1-1,1h-12c-0.552,0-1-0.448-1-1v-12C236.035,350.291,236.483,349.843,237.035,349.843z"/>
			<path fill="#4E4E4E" stroke="#626C84" stroke-linecap="round" stroke-linejoin="round" d="M203.396,349.843h24
				c0.552,0,1,0.448,1,1v12c0,0.552-0.448,1-1,1h-24c-0.552,0-1-0.448-1-1v-12C202.396,350.291,202.844,349.843,203.396,349.843z"/>
			<path fill="#4E4E4E" stroke="#626C84" stroke-linecap="round" stroke-linejoin="round" d="M258.673,349.843h12
				c0.552,0,1,0.448,1,1v12c0,0.552-0.448,1-1,1h-12c-0.552,0-1-0.448-1-1v-12C257.673,350.291,258.121,349.843,258.673,349.843z"/>
			<path fill="#4E4E4E" stroke="#626C84" stroke-linecap="round" stroke-linejoin="round" d="M280.312,349.843h12
				c0.552,0,1,0.448,1,1v12c0,0.552-0.448,1-1,1h-12c-0.552,0-1-0.448-1-1v-12C279.312,350.291,279.76,349.843,280.312,349.843z"/>
			<path fill="#4E4E4E" stroke="#626C84" stroke-linecap="round" stroke-linejoin="round" d="M301.95,349.843h12
				c0.552,0,1,0.448,1,1v12c0,0.552-0.448,1-1,1h-12c-0.552,0-1-0.448-1-1v-12C300.95,350.291,301.398,349.843,301.95,349.843z"/>
			<path fill="#4E4E4E" stroke="#626C84" stroke-linecap="round" stroke-linejoin="round" d="M323.589,349.843h12
				c0.552,0,1,0.448,1,1v12c0,0.552-0.448,1-1,1h-12c-0.552,0-1-0.448-1-1v-12C322.589,350.291,323.037,349.843,323.589,349.843z"/>
			<path fill="#4E4E4E" stroke="#626C84" stroke-linecap="round" stroke-linejoin="round" d="M345.228,349.843h12
				c0.552,0,1,0.448,1,1v12c0,0.552-0.448,1-1,1h-12c-0.552,0-1-0.448-1-1v-12C344.228,350.291,344.676,349.843,345.228,349.843z"/>
			<path fill="#4E4E4E" stroke="#626C84" stroke-linecap="round" stroke-linejoin="round" d="M366.866,349.843h12
				c0.552,0,1,0.448,1,1v12c0,0.552-0.448,1-1,1h-12c-0.552,0-1-0.448-1-1v-12C365.866,350.291,366.314,349.843,366.866,349.843z"/>
			<path fill="#4E4E4E" stroke="#626C84" stroke-linecap="round" stroke-linejoin="round" d="M388.505,349.843h24
				c0.552,0,1,0.448,1,1v12c0,0.552-0.448,1-1,1h-24c-0.552,0-1-0.448-1-1v-12C387.505,350.291,387.953,349.843,388.505,349.843z"/>
			<path fill="#4E4E4E" stroke="#626C84" stroke-linecap="round" stroke-linejoin="round" d="M225.297,330.243h12
				c0.552,0,1,0.448,1,1v12c0,0.552-0.448,1-1,1h-12c-0.552,0-1-0.448-1-1v-12C224.297,330.691,224.745,330.243,225.297,330.243z"/>
			<path fill="#4E4E4E" stroke="#626C84" stroke-linecap="round" stroke-linejoin="round" d="M203.396,330.243h12
				c0.552,0,1,0.448,1,1v12c0,0.552-0.448,1-1,1h-12c-0.552,0-1-0.448-1-1v-12C202.396,330.691,202.844,330.243,203.396,330.243z"/>
			<path fill="#4E4E4E" stroke="#626C84" stroke-linecap="round" stroke-linejoin="round" d="M247.198,330.243h12
				c0.552,0,1,0.448,1,1v12c0,0.552-0.448,1-1,1h-12c-0.552,0-1-0.448-1-1v-12C246.198,330.691,246.646,330.243,247.198,330.243z"/>
			<path fill="#4E4E4E" stroke="#626C84" stroke-linecap="round" stroke-linejoin="round" d="M269.099,330.243h12
				c0.552,0,1,0.448,1,1v12c0,0.552-0.448,1-1,1h-12c-0.552,0-1-0.448-1-1v-12C268.099,330.691,268.547,330.243,269.099,330.243z"/>
			<path fill="#4E4E4E" stroke="#626C84" stroke-linecap="round" stroke-linejoin="round" d="M291,330.243h12c0.552,0,1,0.448,1,1
				v12c0,0.552-0.448,1-1,1h-12c-0.552,0-1-0.448-1-1v-12C290,330.691,290.448,330.243,291,330.243z"/>
			<path fill="#4E4E4E" stroke="#626C84" stroke-linecap="round" stroke-linejoin="round" d="M312.901,330.243h12
				c0.552,0,1,0.448,1,1v12c0,0.552-0.448,1-1,1h-12c-0.552,0-1-0.448-1-1v-12C311.901,330.691,312.349,330.243,312.901,330.243z"/>
			<path fill="#4E4E4E" stroke="#626C84" stroke-linecap="round" stroke-linejoin="round" d="M334.802,330.243h12
				c0.552,0,1,0.448,1,1v12c0,0.552-0.448,1-1,1h-12c-0.552,0-1-0.448-1-1v-12C333.802,330.691,334.25,330.243,334.802,330.243z"/>
			<path fill="#4E4E4E" stroke="#626C84" stroke-linecap="round" stroke-linejoin="round" d="M356.703,330.243h12
				c0.552,0,1,0.448,1,1v12c0,0.552-0.448,1-1,1h-12c-0.552,0-1-0.448-1-1v-12C355.703,330.691,356.151,330.243,356.703,330.243z"/>
			<path fill="#4E4E4E" stroke="#626C84" stroke-linecap="round" stroke-linejoin="round" d="M378.604,330.243h12
				c0.552,0,1,0.448,1,1v12c0,0.552-0.448,1-1,1h-12c-0.552,0-1-0.448-1-1v-12C377.604,330.691,378.052,330.243,378.604,330.243z"/>
			<path fill="#4E4E4E" stroke="#626C84" stroke-linecap="round" stroke-linejoin="round" d="M400.505,330.243h12
				c0.552,0,1,0.448,1,1v12c0,0.552-0.448,1-1,1h-12c-0.552,0-1-0.448-1-1v-12C399.505,330.691,399.953,330.243,400.505,330.243z"/>
			<path fill="#4E4E4E" d="M225.035,390.243h12c0.552,0,1,0.448,1,1v12c0,0.552-0.448,1-1,1h-12c-0.552,0-1-0.448-1-1v-12
				C224.035,390.691,224.483,390.243,225.035,390.243z"/>
			<path fill="#4E4E4E" d="M203.396,390.243h12c0.552,0,1,0.448,1,1v12c0,0.552-0.448,1-1,1h-12c-0.552,0-1-0.448-1-1v-12
				C202.396,390.691,202.844,390.243,203.396,390.243z"/>
			<path fill="#4E4E4E" d="M246.673,390.243h98.554c0.552,0,1,0.448,1,1v12c0,0.552-0.448,1-1,1h-98.554c-0.552,0-1-0.448-1-1v-12
				C245.673,390.691,246.121,390.243,246.673,390.243z"/>
			<path fill="#4E4E4E" d="M354.866,390.243h12c0.552,0,1,0.448,1,1v12c0,0.552-0.448,1-1,1h-12c-0.552,0-1-0.448-1-1v-12
				C353.866,390.691,354.314,390.243,354.866,390.243z"/>
			<path fill="#4E4E4E" d="M390.505,398.118h8c0.552,0,1,0.448,1,1v4.125c0,0.552-0.448,1-1,1h-8c-0.552,0-1-0.448-1-1v-4.125
				C389.505,398.566,389.953,398.118,390.505,398.118z"/>
			<path fill="#4E4E4E" d="M390.505,390.243h8c0.552,0,1,0.448,1,1v4.125c0,0.552-0.448,1-1,1h-8c-0.552,0-1-0.448-1-1v-4.125
				C389.505,390.691,389.953,390.243,390.505,390.243z"/>
			<path fill="#4E4E4E" d="M404.505,398.118h8c0.552,0,1,0.448,1,1v4.125c0,0.552-0.448,1-1,1h-8c-0.552,0-1-0.448-1-1v-4.125
				C403.505,398.566,403.953,398.118,404.505,398.118z"/>
			<path fill="#4E4E4E" d="M376.505,398.118h8c0.552,0,1,0.448,1,1v4.125c0,0.552-0.448,1-1,1h-8c-0.552,0-1-0.448-1-1v-4.125
				C375.505,398.566,375.953,398.118,376.505,398.118z"/>
			<path fill="#4E4E4E" d="M203.396,370.323h31.639c0.552,0,1,0.448,1,1v12c0,0.552-0.448,1-1,1h-31.639c-0.552,0-1-0.448-1-1v-12
				C202.396,370.771,202.844,370.323,203.396,370.323z"/>
			<path fill="#4E4E4E" d="M244.854,370.323h12c0.552,0,1,0.448,1,1v12c0,0.552-0.448,1-1,1h-12c-0.552,0-1-0.448-1-1v-12
				C243.854,370.771,244.302,370.323,244.854,370.323z"/>
			<path fill="#4E4E4E" d="M266.493,370.323h12c0.552,0,1,0.448,1,1v12c0,0.552-0.448,1-1,1h-12c-0.552,0-1-0.448-1-1v-12
				C265.493,370.771,265.941,370.323,266.493,370.323z"/>
			<path fill="#4E4E4E" d="M288.131,370.323h12c0.552,0,1,0.448,1,1v12c0,0.552-0.448,1-1,1h-12c-0.552,0-1-0.448-1-1v-12
				C287.131,370.771,287.579,370.323,288.131,370.323z"/>
			<path fill="#4E4E4E" d="M309.77,370.323h12c0.552,0,1,0.448,1,1v12c0,0.552-0.448,1-1,1h-12c-0.552,0-1-0.448-1-1v-12
				C308.77,370.771,309.218,370.323,309.77,370.323z"/>
			<path fill="#4E4E4E" d="M331.408,370.323h12c0.552,0,1,0.448,1,1v12c0,0.552-0.448,1-1,1h-12c-0.552,0-1-0.448-1-1v-12
				C330.408,370.771,330.856,370.323,331.408,370.323z"/>
			<path fill="#4E4E4E" d="M353.047,370.323h12c0.552,0,1,0.448,1,1v12c0,0.552-0.448,1-1,1h-12c-0.552,0-1-0.448-1-1v-12
				C352.047,370.771,352.495,370.323,353.047,370.323z"/>
			<path fill="#4E4E4E" d="M376.505,370.323h36c0.552,0,1,0.448,1,1v12c0,0.552-0.448,1-1,1h-36c-0.552,0-1-0.448-1-1v-12
				C375.505,370.771,375.953,370.323,376.505,370.323z"/>
			<path fill="#4E4E4E" d="M237.035,349.843h12c0.552,0,1,0.448,1,1v12c0,0.552-0.448,1-1,1h-12c-0.552,0-1-0.448-1-1v-12
				C236.035,350.291,236.483,349.843,237.035,349.843z"/>
			<path fill="#4E4E4E" d="M203.396,349.843h24c0.552,0,1,0.448,1,1v12c0,0.552-0.448,1-1,1h-24c-0.552,0-1-0.448-1-1v-12
				C202.396,350.291,202.844,349.843,203.396,349.843z"/>
			<path fill="#4E4E4E" d="M258.673,349.843h12c0.552,0,1,0.448,1,1v12c0,0.552-0.448,1-1,1h-12c-0.552,0-1-0.448-1-1v-12
				C257.673,350.291,258.121,349.843,258.673,349.843z"/>
			<path fill="#4E4E4E" d="M280.312,349.843h12c0.552,0,1,0.448,1,1v12c0,0.552-0.448,1-1,1h-12c-0.552,0-1-0.448-1-1v-12
				C279.312,350.291,279.76,349.843,280.312,349.843z"/>
			<path fill="#4E4E4E" d="M301.95,349.843h12c0.552,0,1,0.448,1,1v12c0,0.552-0.448,1-1,1h-12c-0.552,0-1-0.448-1-1v-12
				C300.95,350.291,301.398,349.843,301.95,349.843z"/>
			<path fill="#4E4E4E" d="M323.589,349.843h12c0.552,0,1,0.448,1,1v12c0,0.552-0.448,1-1,1h-12c-0.552,0-1-0.448-1-1v-12
				C322.589,350.291,323.037,349.843,323.589,349.843z"/>
			<path fill="#4E4E4E" d="M345.228,349.843h12c0.552,0,1,0.448,1,1v12c0,0.552-0.448,1-1,1h-12c-0.552,0-1-0.448-1-1v-12
				C344.228,350.291,344.676,349.843,345.228,349.843z"/>
			<path fill="#4E4E4E" d="M366.866,349.843h12c0.552,0,1,0.448,1,1v12c0,0.552-0.448,1-1,1h-12c-0.552,0-1-0.448-1-1v-12
				C365.866,350.291,366.314,349.843,366.866,349.843z"/>
			<path fill="#4E4E4E" d="M388.505,349.843h24c0.552,0,1,0.448,1,1v12c0,0.552-0.448,1-1,1h-24c-0.552,0-1-0.448-1-1v-12
				C387.505,350.291,387.953,349.843,388.505,349.843z"/>
			<path fill="#4E4E4E" d="M225.297,330.243h12c0.552,0,1,0.448,1,1v12c0,0.552-0.448,1-1,1h-12c-0.552,0-1-0.448-1-1v-12
				C224.297,330.691,224.745,330.243,225.297,330.243z"/>
			<path fill="#4E4E4E" d="M203.396,330.243h12c0.552,0,1,0.448,1,1v12c0,0.552-0.448,1-1,1h-12c-0.552,0-1-0.448-1-1v-12
				C202.396,330.691,202.844,330.243,203.396,330.243z"/>
			<path fill="#4E4E4E" d="M247.198,330.243h12c0.552,0,1,0.448,1,1v12c0,0.552-0.448,1-1,1h-12c-0.552,0-1-0.448-1-1v-12
				C246.198,330.691,246.646,330.243,247.198,330.243z"/>
			<path fill="#4E4E4E" d="M269.099,330.243h12c0.552,0,1,0.448,1,1v12c0,0.552-0.448,1-1,1h-12c-0.552,0-1-0.448-1-1v-12
				C268.099,330.691,268.547,330.243,269.099,330.243z"/>
			<path fill="#4E4E4E" d="M291,330.243h12c0.552,0,1,0.448,1,1v12c0,0.552-0.448,1-1,1h-12c-0.552,0-1-0.448-1-1v-12
				C290,330.691,290.448,330.243,291,330.243z"/>
			<path fill="#4E4E4E" d="M312.901,330.243h12c0.552,0,1,0.448,1,1v12c0,0.552-0.448,1-1,1h-12c-0.552,0-1-0.448-1-1v-12
				C311.901,330.691,312.349,330.243,312.901,330.243z"/>
			<path fill="#4E4E4E" d="M334.802,330.243h12c0.552,0,1,0.448,1,1v12c0,0.552-0.448,1-1,1h-12c-0.552,0-1-0.448-1-1v-12
				C333.802,330.691,334.25,330.243,334.802,330.243z"/>
			<path fill="#4E4E4E" d="M356.703,330.243h12c0.552,0,1,0.448,1,1v12c0,0.552-0.448,1-1,1h-12c-0.552,0-1-0.448-1-1v-12
				C355.703,330.691,356.151,330.243,356.703,330.243z"/>
			<path fill="#4E4E4E" d="M378.604,330.243h12c0.552,0,1,0.448,1,1v12c0,0.552-0.448,1-1,1h-12c-0.552,0-1-0.448-1-1v-12
				C377.604,330.691,378.052,330.243,378.604,330.243z"/>
			<path fill="#4E4E4E" d="M400.505,330.243h12c0.552,0,1,0.448,1,1v12c0,0.552-0.448,1-1,1h-12c-0.552,0-1-0.448-1-1v-12
				C399.505,330.691,399.953,330.243,400.505,330.243z"/>
			<path fill="#4E4E4E" d="M222.95,298.339h170l0,0v13.446c0,2.209-1.791,4-4,4h-162c-2.209,0-4-1.791-4-4L222.95,298.339
				L222.95,298.339L222.95,298.339z"/>
			<path opacity="0.25" fill="#4E4E4E" enable-background="new    " d="M388.95,311.784h-162c-2.209,0-4-1.791-4-4v4
				c0,2.209,1.791,4,4,4h162c2.209,0,4-1.791,4-4v-4C392.95,309.993,391.159,311.784,388.95,311.784z"/>
			<path fill="#4E4E4E" stroke="#46505C" stroke-width="2" stroke-linecap="round" stroke-linejoin="round" d="M222.95,298.339h170
				l0,0v13.446c0,2.209-1.791,4-4,4h-162c-2.209,0-4-1.791-4-4L222.95,298.339L222.95,298.339L222.95,298.339z"/>
			<path fill="#4E4E4E" d="M272.951,417.743h70c1.105,0,2,0.895,2,2v47c0,1.105-0.895,2-2,2h-70c-1.105,0-2-0.895-2-2v-47
				C270.951,418.638,271.846,417.743,272.951,417.743z"/>
			<path fill="#4E4E4E" stroke="#626C84" stroke-linecap="round" stroke-linejoin="round" d="M272.951,417.743h70
				c1.105,0,2,0.895,2,2v47c0,1.105-0.895,2-2,2h-70c-1.105,0-2-0.895-2-2v-47C270.951,418.638,271.846,417.743,272.951,417.743z"/>
		</g>
		<g opacity="0.33">
			<path fill="#4E4E4E" stroke="#46505C" stroke-width="4" stroke-linecap="round" stroke-linejoin="round" d="M87.598,407.458
				l7.722-11.032c0.219-0.313,0.651-0.389,0.964-0.17l7.878,5.514c0.313,0.219,0.389,0.651,0.17,0.964l-7.722,11.032
				c-1.583,2.262-4.701,2.813-6.963,1.229l-0.819-0.573C86.565,412.838,86.015,409.72,87.598,407.458z"/>
			<path fill="#4E4E4E" stroke="#46505C" stroke-width="4" stroke-linecap="round" stroke-linejoin="round" d="M87.598,407.458
				l7.722-11.032c0.219-0.313,0.651-0.389,0.964-0.17l7.878,5.514c0.313,0.219,0.389,0.651,0.17,0.964l-7.722,11.032
				c-1.583,2.262-4.701,2.813-6.963,1.229l-0.819-0.573C86.565,412.838,86.015,409.72,87.598,407.458z"/>
			
				<circle fill="#4E4E4E" stroke="#46505C" stroke-width="4" stroke-linecap="round" stroke-linejoin="round" cx="117.084" cy="374.922" r="32.576"/>
			
				<circle fill="#4E4E4E" stroke="#46505C" stroke-width="4" stroke-linecap="round" stroke-linejoin="round" cx="117.084" cy="374.922" r="32.576"/>
			
				<circle fill="#4E4E4E" stroke="#46505C" stroke-width="4" stroke-linecap="round" stroke-linejoin="round" cx="117.084" cy="374.922" r="25.355"/>
			
				<circle fill="#4E4E4E" stroke="#46505C" stroke-width="4" stroke-linecap="round" stroke-linejoin="round" cx="117.084" cy="374.922" r="25.355"/>
			
				<path opacity="0.33" fill="#4E4E4E" stroke="#46505C" stroke-width="4" stroke-linecap="round" stroke-linejoin="round" enable-background="new    " d="
				M100.509,369.659c0.339-0.764,0.706-1.513,1.08-2.246c1.7-3.332,3.733-6.786,6.978-8.827c2.755-1.734,6.608-2.413,9.594-0.879
				c2.59,1.33,4.151,4.065,6.514,5.767c1.593,0.976,3.248,1.846,4.954,2.605c1.723,0.775,3.086,2.177,3.813,3.921
				c0.8,2.444-0.519,5.052-0.532,7.624c-0.004,1.419,0.389,2.811,1.137,4.017c0.472,0.564,0.775,1.25,0.875,1.979
				c-0.146,0.951-0.806,1.744-1.715,2.06c-2.626,1.241-5.693,0.793-8.581,0.481s-6.086-0.378-8.369,1.418
				c-0.935,0.862-1.8,1.795-2.589,2.792c-1.248,1.871-3.776,2.376-5.647,1.128c-0.216-0.144-0.418-0.309-0.603-0.491
				c-2.07-1.734-3.865-3.77-5.326-6.041c-1.535-1.921-2.62-4.161-3.173-6.557C98.4,375.435,99.265,372.458,100.509,369.659z"/>
			
				<circle opacity="0.33" fill="#4E4E4E" stroke="#46505C" stroke-width="4" stroke-linecap="round" stroke-linejoin="round" enable-background="new    " cx="122.212" cy="392.543" r="1.574"/>
			
				<circle opacity="0.33" fill="#4E4E4E" stroke="#46505C" stroke-width="4" stroke-linecap="round" stroke-linejoin="round" enable-background="new    " cx="118.115" cy="393.124" r="1.09"/>
			
				<circle opacity="0.33" fill="#4E4E4E" stroke="#46505C" stroke-width="4" stroke-linecap="round" stroke-linejoin="round" enable-background="new    " cx="125.931" cy="391.079" r="0.988"/>
			
				<circle opacity="0.33" fill="#4E4E4E" stroke="#46505C" stroke-width="4" stroke-linecap="round" stroke-linejoin="round" enable-background="new    " cx="114.667" cy="393.532" r="0.708"/>
			
				<circle opacity="0.33" fill="#4E4E4E" stroke="#46505C" stroke-width="4" stroke-linecap="round" stroke-linejoin="round" enable-background="new    " cx="129.052" cy="390.035" r="0.432"/>
			
				<circle opacity="0.33" fill="#4E4E4E" stroke="#46505C" stroke-width="4" stroke-linecap="round" stroke-linejoin="round" enable-background="new    " cx="97.409" cy="368.931" r="1.014"/>
			
				<circle opacity="0.33" fill="#4E4E4E" stroke="#46505C" stroke-width="4" stroke-linecap="round" stroke-linejoin="round" enable-background="new    " cx="125.014" cy="357.133" r="0.954"/>
			
				<circle opacity="0.33" fill="#4E4E4E" stroke="#46505C" stroke-width="4" stroke-linecap="round" stroke-linejoin="round" enable-background="new    " cx="131.215" cy="361.833" r="0.864"/>
			
				<circle opacity="0.33" fill="#4E4E4E" stroke="#46505C" stroke-width="4" stroke-linecap="round" stroke-linejoin="round" enable-background="new    " cx="131.924" cy="364.281" r="0.378"/>
		</g>
		<path fill="#FFFFFF" stroke="#E6F3FF" stroke-width="2" stroke-miterlimit="10" d="M80.376,399.281l7.721-11.031
			c0.219-0.313,0.651-0.389,0.964-0.17l7.878,5.514c0.313,0.219,0.389,0.651,0.17,0.964l-7.721,11.031
			c-1.583,2.262-4.701,2.813-6.963,1.229l-0.819-0.573C79.343,404.661,78.792,401.543,80.376,399.281z"/>
		
			<path opacity="0.18" fill="#4E4E4E" stroke="#46505C" stroke-width="4" stroke-linecap="round" stroke-linejoin="round" enable-background="new    " d="
			M89.06,388.081c-0.313-0.218-0.744-0.142-0.963,0.171l-3.477,4.966c1.333,1.27,2.76,2.438,4.269,3.494
			c1.508,1.055,3.094,1.996,4.742,2.815l3.477-4.968c0.219-0.312,0.144-0.742-0.168-0.961c-0.001-0.001-0.002-0.001-0.002-0.002
			L89.06,388.081z"/>
		<g>
			<path fill="#46505C" d="M85.281,409.719c-1.386,0-2.785-0.409-4.003-1.263l-0.819-0.573c-3.162-2.214-3.934-6.587-1.721-9.749
				l0,0l7.721-11.031c0.851-1.215,2.532-1.513,3.748-0.663l7.88,5.515c1.217,0.854,1.512,2.537,0.66,3.751l-7.72,11.029
				C89.667,408.678,87.491,409.719,85.281,409.719z M82.015,400.427c-0.949,1.355-0.618,3.23,0.737,4.179l0.819,0.573
				c1.355,0.947,3.23,0.617,4.178-0.737l6.971-9.96l-5.735-4.014L82.015,400.427z M95.47,393.41c0,0-0.001,0.001-0.001,0.002
				L95.47,393.41z"/>
		</g>
		<circle fill="#FFFFFF" stroke="#E6F3FF" stroke-width="2" stroke-miterlimit="10" cx="109.862" cy="366.746" r="32.576"/>
		<g>
			<path fill="#46505C" d="M109.862,401.322c-19.065,0-34.576-15.511-34.576-34.576s15.511-34.576,34.576-34.576
				c19.065,0,34.576,15.511,34.576,34.576S128.927,401.322,109.862,401.322z M109.862,336.17c-16.859,0-30.576,13.717-30.576,30.576
				s13.716,30.576,30.576,30.576c16.86,0,30.576-13.717,30.576-30.576S126.722,336.17,109.862,336.17z"/>
		</g>
		<circle fill="#845B5B" cx="109.862" cy="366.746" r="25.355"/>
		<g>
			<path fill="#46505C" d="M109.862,393.101c-14.532,0-26.355-11.822-26.355-26.354s11.823-26.355,26.355-26.355
				s26.355,11.823,26.355,26.355S124.394,393.101,109.862,393.101z M109.862,342.391c-13.429,0-24.355,10.926-24.355,24.355
				c0,13.429,10.926,24.354,24.355,24.354s24.355-10.926,24.355-24.354C134.217,353.316,123.291,342.391,109.862,342.391z"/>
		</g>
		<path opacity="0.33" fill="#845B5B" enable-background="new    " d="M93.287,361.482c0.339-0.763,0.706-1.513,1.08-2.246
			c1.7-3.331,3.734-6.785,6.978-8.827c2.756-1.734,6.608-2.412,9.594-0.879c2.59,1.33,4.151,4.066,6.514,5.767
			c1.593,0.974,3.248,1.842,4.955,2.6c1.722,0.775,3.085,2.176,3.813,3.918c0.8,2.445-0.519,5.053-0.533,7.624
			c-0.004,1.419,0.389,2.811,1.137,4.017c0.472,0.564,0.776,1.25,0.876,1.979c-0.146,0.952-0.806,1.744-1.715,2.061
			c-2.627,1.24-5.694,0.793-8.582,0.48s-6.085-0.377-8.369,1.418c-0.934,0.862-1.8,1.795-2.589,2.792
			c-1.248,1.871-3.777,2.376-5.649,1.128c-0.216-0.144-0.417-0.308-0.601-0.49c-2.07-1.734-3.865-3.771-5.326-6.042
			c-1.534-1.919-2.617-4.158-3.17-6.552C91.173,367.258,92.044,364.281,93.287,361.482z"/>
		<circle opacity="0.33" fill="#845B5B" enable-background="new    " cx="114.99" cy="384.366" r="1.574"/>
		<circle opacity="0.33" fill="#845B5B" enable-background="new    " cx="110.893" cy="384.947" r="1.09"/>
		<circle opacity="0.33" fill="#845B5B" enable-background="new    " cx="118.709" cy="382.903" r="0.988"/>
		<circle opacity="0.33" fill="#845B5B" enable-background="new    " cx="107.445" cy="385.356" r="0.708"/>
		<circle opacity="0.33" fill="#845B5B" enable-background="new    " cx="121.83" cy="381.859" r="0.432"/>
		<circle opacity="0.33" fill="#845B5B" enable-background="new    " cx="90.187" cy="360.755" r="1.014"/>
		<circle opacity="0.33" fill="#845B5B" enable-background="new    " cx="117.792" cy="348.956" r="0.954"/>
		<circle opacity="0.33" fill="#845B5B" enable-background="new    " cx="123.993" cy="353.656" r="0.864"/>
		<circle opacity="0.33" fill="#845B5B" enable-background="new    " cx="124.702" cy="356.104" r="0.378"/>
		<circle fill="#845B5B" cx="112.084" cy="368.84" r="2"/>
		<circle fill="#845B5B" cx="105.57" cy="361.159" r="3.5"/>
		<g>
			<path d="M416,298.404H184c-7.995,0-14.5-6.505-14.5-14.5v-136c0-7.995,6.505-14.5,14.5-14.5h232c7.995,0,14.5,6.505,14.5,14.5
				v136C430.5,291.899,423.995,298.404,416,298.404z M184,134.404c-7.444,0-13.5,6.056-13.5,13.5v136c0,7.444,6.056,13.5,13.5,13.5
				h232c7.444,0,13.5-6.056,13.5-13.5v-136c0-7.444-6.056-13.5-13.5-13.5H184z"/>
		</g>
		<path fill="#626C84" d="M184,133.904h232c7.732,0,14,6.268,14,14v136c0,7.732-6.268,14-14,14H184c-7.732,0-14-6.268-14-14v-136
			C170,140.172,176.268,133.904,184,133.904z"/>
		<path fill="#626C84" d="M184,133.904h232c7.732,0,14,6.268,14,14v136c0,7.732-6.268,14-14,14H184c-7.732,0-14-6.268-14-14v-136
			C170,140.172,176.268,133.904,184,133.904z"/>
		<path opacity="0.17" fill="#626C84" enable-background="new    " d="M184,133.904h232c7.732,0,14,6.268,14,14V274.92
			c0,7.732-6.268,14-14,14H184c-7.732,0-14-6.268-14-14V147.904C170,140.172,176.268,133.904,184,133.904z"/>
		<path opacity="0.1" fill="#FFFFFF" enable-background="new    " d="M184,137.9h232c7.732,0,14,6.268,14,14v132l0,0v-136
			c0-7.732-6.268-14-14-14H184c-7.732,0-14,6.268-14,14v4C170,144.168,176.268,137.9,184,137.9z"/>
		<g opacity="0.1">
			<polygon fill="#FFFFFF" points="249.227,297.904 265.296,297.904 384.449,133.904 368.38,133.904 			"/>
			<polygon fill="#FFFFFF" points="274.566,297.904 279.51,297.904 398.664,133.904 393.719,133.904 			"/>
		</g>
		<g>
			<path fill="#46505C" d="M416,299.904H184c-8.822,0-16-7.178-16-16v-136c0-8.822,7.178-16,16-16h232c8.822,0,16,7.178,16,16v136
				C432,292.726,424.822,299.904,416,299.904z M184,135.904c-6.617,0-12,5.383-12,12v136c0,6.617,5.383,12,12,12h232
				c6.617,0,12-5.383,12-12v-136c0-6.617-5.383-12-12-12H184z"/>
		</g>
		<rect x="188" y="152.384" fill="#FD848E" width="224" height="126"/>
		<g opacity="0.06">
			<polygon fill="#FFFFFF" points="264.409,278.384 280.478,278.384 372.022,152.384 355.953,152.384 			"/>
			<polygon fill="#FFFFFF" points="289.748,278.384 294.693,278.384 386.237,152.384 381.293,152.384 			"/>
		</g>
		<g>
			<path fill="#46505C" d="M412,278.884H188c-0.276,0-0.5-0.224-0.5-0.5v-126c0-0.276,0.224-0.5,0.5-0.5h224
				c0.276,0,0.5,0.224,0.5,0.5v126C412.5,278.66,412.276,278.884,412,278.884z M188.5,277.884h223v-125h-223V277.884z"/>
		</g>
		<path fill="#E6F3FF" d="M184,297.904h232c7.732,0,14,6.268,14,14v144c0,7.732-6.268,14-14,14H184c-7.732,0-14-6.268-14-14v-144
			C170,304.172,176.268,297.904,184,297.904z"/>
		<path fill="#FFFFFF" stroke="#E6F3FF" stroke-width="2" stroke-miterlimit="10" d="M426,311.904v144c0,5.523-4.477,10-10,10H184
			c-5.523,0-10-4.477-10-10v-144c0-5.523,4.477-10,10-10h232C421.523,301.904,426,306.381,426,311.904z"/>
		<path fill="#E6F3FF" d="M283.949,462.084h32.1c2.209,0,4,1.791,4,4v3.82l0,0h-40.1l0,0v-3.82
			C279.949,463.875,281.74,462.084,283.949,462.084z"/>
		<g>
			<path fill="#46505C" d="M416,471.904H184c-8.822,0-16-7.178-16-16v-144c0-8.822,7.178-16,16-16h232c8.822,0,16,7.178,16,16v144
				C432,464.727,424.822,471.904,416,471.904z M184,299.904c-6.617,0-12,5.383-12,12v144c0,6.617,5.383,12,12,12h232
				c6.617,0,12-5.383,12-12v-144c0-6.617-5.383-12-12-12H184z"/>
		</g>
		<path fill="#E6F3FF" d="M188,311.323h224c1.657,0,3,1.343,3,3v86c0,1.657-1.343,3-3,3H188c-1.657,0-3-1.343-3-3v-86
			C185,312.666,186.343,311.323,188,311.323z"/>
		<g>
			<path fill="#626C84" d="M229.084,395.323h-12c-0.827,0-1.5-0.673-1.5-1.5v-12c0-0.827,0.673-1.5,1.5-1.5h12
				c0.827,0,1.5,0.673,1.5,1.5v12C230.584,394.65,229.911,395.323,229.084,395.323z M217.084,381.323c-0.276,0-0.5,0.225-0.5,0.5v12
				c0,0.275,0.224,0.5,0.5,0.5h12c0.276,0,0.5-0.225,0.5-0.5v-12c0-0.275-0.224-0.5-0.5-0.5H217.084z"/>
		</g>
		<g>
			<path fill="#626C84" d="M207.446,395.323h-12c-0.827,0-1.5-0.673-1.5-1.5v-12c0-0.827,0.673-1.5,1.5-1.5h12
				c0.827,0,1.5,0.673,1.5,1.5v12C208.946,394.65,208.273,395.323,207.446,395.323z M195.446,381.323c-0.276,0-0.5,0.225-0.5,0.5v12
				c0,0.275,0.224,0.5,0.5,0.5h12c0.276,0,0.5-0.225,0.5-0.5v-12c0-0.275-0.224-0.5-0.5-0.5H195.446z"/>
		</g>
		<g>
			<path fill="#626C84" d="M337.277,395.323h-98.554c-0.827,0-1.5-0.673-1.5-1.5v-12c0-0.827,0.673-1.5,1.5-1.5h98.554
				c0.827,0,1.5,0.673,1.5,1.5v12C338.777,394.65,338.104,395.323,337.277,395.323z M238.723,381.323c-0.276,0-0.5,0.225-0.5,0.5v12
				c0,0.275,0.224,0.5,0.5,0.5h98.554c0.275,0,0.5-0.225,0.5-0.5v-12c0-0.275-0.225-0.5-0.5-0.5H238.723z"/>
		</g>
		<g>
			<path fill="#626C84" d="M358.916,395.323h-12c-0.827,0-1.5-0.673-1.5-1.5v-12c0-0.827,0.673-1.5,1.5-1.5h12
				c0.827,0,1.5,0.673,1.5,1.5v12C360.416,394.65,359.743,395.323,358.916,395.323z M346.916,381.323c-0.275,0-0.5,0.225-0.5,0.5v12
				c0,0.275,0.225,0.5,0.5,0.5h12c0.275,0,0.5-0.225,0.5-0.5v-12c0-0.275-0.225-0.5-0.5-0.5H346.916z"/>
		</g>
		<g>
			<path fill="#626C84" d="M390.554,395.323h-8c-0.827,0-1.5-0.673-1.5-1.5v-4.125c0-0.827,0.673-1.5,1.5-1.5h8
				c0.827,0,1.5,0.673,1.5,1.5v4.125C392.054,394.65,391.381,395.323,390.554,395.323z M382.554,389.198c-0.275,0-0.5,0.225-0.5,0.5
				v4.125c0,0.275,0.225,0.5,0.5,0.5h8c0.275,0,0.5-0.225,0.5-0.5v-4.125c0-0.275-0.225-0.5-0.5-0.5H382.554z"/>
		</g>
		<g>
			<path fill="#626C84" d="M390.554,387.448h-8c-0.827,0-1.5-0.673-1.5-1.5v-4.125c0-0.827,0.673-1.5,1.5-1.5h8
				c0.827,0,1.5,0.673,1.5,1.5v4.125C392.054,386.775,391.381,387.448,390.554,387.448z M382.554,381.323
				c-0.275,0-0.5,0.225-0.5,0.5v4.125c0,0.275,0.225,0.5,0.5,0.5h8c0.275,0,0.5-0.225,0.5-0.5v-4.125c0-0.275-0.225-0.5-0.5-0.5
				H382.554z"/>
		</g>
		<g>
			<path fill="#626C84" d="M404.554,395.323h-8c-0.827,0-1.5-0.673-1.5-1.5v-4.125c0-0.827,0.673-1.5,1.5-1.5h8
				c0.827,0,1.5,0.673,1.5,1.5v4.125C406.054,394.65,405.381,395.323,404.554,395.323z M396.554,389.198c-0.275,0-0.5,0.225-0.5,0.5
				v4.125c0,0.275,0.225,0.5,0.5,0.5h8c0.275,0,0.5-0.225,0.5-0.5v-4.125c0-0.275-0.225-0.5-0.5-0.5H396.554z"/>
		</g>
		<g>
			<path fill="#626C84" d="M376.554,395.323h-8c-0.827,0-1.5-0.673-1.5-1.5v-4.125c0-0.827,0.673-1.5,1.5-1.5h8
				c0.827,0,1.5,0.673,1.5,1.5v4.125C378.054,394.65,377.381,395.323,376.554,395.323z M368.554,389.198c-0.275,0-0.5,0.225-0.5,0.5
				v4.125c0,0.275,0.225,0.5,0.5,0.5h8c0.275,0,0.5-0.225,0.5-0.5v-4.125c0-0.275-0.225-0.5-0.5-0.5H368.554z"/>
		</g>
		<g>
			<path fill="#626C84" d="M227.085,375.404h-31.639c-0.827,0-1.5-0.673-1.5-1.5v-12c0-0.827,0.673-1.5,1.5-1.5h31.639
				c0.827,0,1.5,0.673,1.5,1.5v12C228.585,374.731,227.912,375.404,227.085,375.404z M195.446,361.404c-0.276,0-0.5,0.225-0.5,0.5
				v12c0,0.275,0.224,0.5,0.5,0.5h31.639c0.276,0,0.5-0.225,0.5-0.5v-12c0-0.275-0.224-0.5-0.5-0.5H195.446z"/>
		</g>
		<g>
			<path fill="#626C84" d="M248.904,375.404h-12c-0.827,0-1.5-0.673-1.5-1.5v-12c0-0.827,0.673-1.5,1.5-1.5h12
				c0.827,0,1.5,0.673,1.5,1.5v12C250.404,374.731,249.731,375.404,248.904,375.404z M236.904,361.404c-0.276,0-0.5,0.225-0.5,0.5
				v12c0,0.275,0.224,0.5,0.5,0.5h12c0.276,0,0.5-0.225,0.5-0.5v-12c0-0.275-0.224-0.5-0.5-0.5H236.904z"/>
		</g>
		<g>
			<path fill="#626C84" d="M270.542,375.404h-12c-0.827,0-1.5-0.673-1.5-1.5v-12c0-0.827,0.673-1.5,1.5-1.5h12
				c0.827,0,1.5,0.673,1.5,1.5v12C272.042,374.731,271.369,375.404,270.542,375.404z M258.542,361.404c-0.276,0-0.5,0.225-0.5,0.5
				v12c0,0.275,0.224,0.5,0.5,0.5h12c0.276,0,0.5-0.225,0.5-0.5v-12c0-0.275-0.224-0.5-0.5-0.5H258.542z"/>
		</g>
		<g>
			<path fill="#626C84" d="M292.181,375.404h-12c-0.827,0-1.5-0.673-1.5-1.5v-12c0-0.827,0.673-1.5,1.5-1.5h12
				c0.827,0,1.5,0.673,1.5,1.5v12C293.681,374.731,293.008,375.404,292.181,375.404z M280.181,361.404c-0.276,0-0.5,0.225-0.5,0.5
				v12c0,0.275,0.224,0.5,0.5,0.5h12c0.276,0,0.5-0.225,0.5-0.5v-12c0-0.275-0.224-0.5-0.5-0.5H280.181z"/>
		</g>
		<g>
			<path fill="#626C84" d="M313.819,375.404h-12c-0.827,0-1.5-0.673-1.5-1.5v-12c0-0.827,0.673-1.5,1.5-1.5h12
				c0.827,0,1.5,0.673,1.5,1.5v12C315.319,374.731,314.646,375.404,313.819,375.404z M301.819,361.404
				c-0.276,0-0.501,0.225-0.501,0.5v12c0,0.275,0.225,0.5,0.501,0.5h12c0.275,0,0.5-0.225,0.5-0.5v-12c0-0.275-0.225-0.5-0.5-0.5
				H301.819z"/>
		</g>
		<g>
			<path fill="#626C84" d="M335.458,375.404h-12c-0.827,0-1.5-0.673-1.5-1.5v-12c0-0.827,0.673-1.5,1.5-1.5h12
				c0.827,0,1.5,0.673,1.5,1.5v12C336.958,374.731,336.285,375.404,335.458,375.404z M323.458,361.404c-0.275,0-0.5,0.225-0.5,0.5
				v12c0,0.275,0.225,0.5,0.5,0.5h12c0.275,0,0.5-0.225,0.5-0.5v-12c0-0.275-0.225-0.5-0.5-0.5H323.458z"/>
		</g>
		<g>
			<path fill="#626C84" d="M357.096,375.404h-12c-0.827,0-1.5-0.673-1.5-1.5v-12c0-0.827,0.673-1.5,1.5-1.5h12
				c0.827,0,1.5,0.673,1.5,1.5v12C358.596,374.731,357.923,375.404,357.096,375.404z M345.096,361.404c-0.275,0-0.5,0.225-0.5,0.5
				v12c0,0.275,0.225,0.5,0.5,0.5h12c0.275,0,0.5-0.225,0.5-0.5v-12c0-0.275-0.225-0.5-0.5-0.5H345.096z"/>
		</g>
		<g>
			<path fill="#626C84" d="M404.554,375.404h-36c-0.827,0-1.5-0.673-1.5-1.5v-12c0-0.827,0.673-1.5,1.5-1.5h36
				c0.827,0,1.5,0.673,1.5,1.5v12C406.054,374.731,405.381,375.404,404.554,375.404z M368.554,361.404c-0.275,0-0.5,0.225-0.5,0.5
				v12c0,0.275,0.225,0.5,0.5,0.5h36c0.275,0,0.5-0.225,0.5-0.5v-12c0-0.275-0.225-0.5-0.5-0.5H368.554z"/>
		</g>
		<g>
			<path fill="#626C84" d="M241.084,354.924h-12c-0.827,0-1.5-0.673-1.5-1.5v-12c0-0.827,0.673-1.5,1.5-1.5h12
				c0.827,0,1.5,0.673,1.5,1.5v12C242.584,354.251,241.911,354.924,241.084,354.924z M229.084,340.924c-0.276,0-0.5,0.225-0.5,0.5
				v12c0,0.275,0.224,0.5,0.5,0.5h12c0.276,0,0.5-0.225,0.5-0.5v-12c0-0.275-0.224-0.5-0.5-0.5H229.084z"/>
		</g>
		<g>
			<path fill="#626C84" d="M219.446,354.924h-24c-0.827,0-1.5-0.673-1.5-1.5v-12c0-0.827,0.673-1.5,1.5-1.5h24
				c0.827,0,1.5,0.673,1.5,1.5v12C220.946,354.251,220.273,354.924,219.446,354.924z M195.446,340.924c-0.276,0-0.5,0.225-0.5,0.5
				v12c0,0.275,0.224,0.5,0.5,0.5h24c0.276,0,0.5-0.225,0.5-0.5v-12c0-0.275-0.224-0.5-0.5-0.5H195.446z"/>
		</g>
		<g>
			<path fill="#626C84" d="M262.723,354.924h-12c-0.827,0-1.5-0.673-1.5-1.5v-12c0-0.827,0.673-1.5,1.5-1.5h12
				c0.827,0,1.5,0.673,1.5,1.5v12C264.223,354.251,263.55,354.924,262.723,354.924z M250.723,340.924c-0.276,0-0.5,0.225-0.5,0.5v12
				c0,0.275,0.224,0.5,0.5,0.5h12c0.276,0,0.5-0.225,0.5-0.5v-12c0-0.275-0.224-0.5-0.5-0.5H250.723z"/>
		</g>
		<g>
			<path fill="#626C84" d="M284.361,354.924h-12c-0.827,0-1.5-0.673-1.5-1.5v-12c0-0.827,0.673-1.5,1.5-1.5h12
				c0.827,0,1.5,0.673,1.5,1.5v12C285.861,354.251,285.188,354.924,284.361,354.924z M272.361,340.924c-0.276,0-0.5,0.225-0.5,0.5
				v12c0,0.275,0.224,0.5,0.5,0.5h12c0.276,0,0.5-0.225,0.5-0.5v-12c0-0.275-0.224-0.5-0.5-0.5H272.361z"/>
		</g>
		<g>
			<path fill="#626C84" d="M306,354.924h-12c-0.827,0-1.5-0.673-1.5-1.5v-12c0-0.827,0.673-1.5,1.5-1.5h12
				c0.827,0,1.5,0.673,1.5,1.5v12C307.5,354.251,306.827,354.924,306,354.924z M294,340.924c-0.276,0-0.5,0.225-0.5,0.5v12
				c0,0.275,0.224,0.5,0.5,0.5h12c0.275,0,0.5-0.225,0.5-0.5v-12c0-0.275-0.225-0.5-0.5-0.5H294z"/>
		</g>
		<g>
			<path fill="#626C84" d="M327.639,354.924h-12c-0.827,0-1.5-0.673-1.5-1.5v-12c0-0.827,0.673-1.5,1.5-1.5h12
				c0.827,0,1.5,0.673,1.5,1.5v12C329.139,354.251,328.466,354.924,327.639,354.924z M315.639,340.924c-0.275,0-0.5,0.225-0.5,0.5
				v12c0,0.275,0.225,0.5,0.5,0.5h12c0.275,0,0.5-0.225,0.5-0.5v-12c0-0.275-0.225-0.5-0.5-0.5H315.639z"/>
		</g>
		<g>
			<path fill="#626C84" d="M349.277,354.924h-12c-0.827,0-1.5-0.673-1.5-1.5v-12c0-0.827,0.673-1.5,1.5-1.5h12
				c0.827,0,1.5,0.673,1.5,1.5v12C350.777,354.251,350.104,354.924,349.277,354.924z M337.277,340.924c-0.275,0-0.5,0.225-0.5,0.5
				v12c0,0.275,0.225,0.5,0.5,0.5h12c0.275,0,0.5-0.225,0.5-0.5v-12c0-0.275-0.225-0.5-0.5-0.5H337.277z"/>
		</g>
		<g>
			<path fill="#626C84" d="M370.916,354.924h-12c-0.827,0-1.5-0.673-1.5-1.5v-12c0-0.827,0.673-1.5,1.5-1.5h12
				c0.827,0,1.5,0.673,1.5,1.5v12C372.416,354.251,371.743,354.924,370.916,354.924z M358.916,340.924c-0.275,0-0.5,0.225-0.5,0.5
				v12c0,0.275,0.225,0.5,0.5,0.5h12c0.275,0,0.5-0.225,0.5-0.5v-12c0-0.275-0.225-0.5-0.5-0.5H358.916z"/>
		</g>
		<g>
			<path fill="#626C84" d="M404.554,354.924h-24c-0.827,0-1.5-0.673-1.5-1.5v-12c0-0.827,0.673-1.5,1.5-1.5h24
				c0.827,0,1.5,0.673,1.5,1.5v12C406.054,354.251,405.381,354.924,404.554,354.924z M380.554,340.924c-0.275,0-0.5,0.225-0.5,0.5
				v12c0,0.275,0.225,0.5,0.5,0.5h24c0.275,0,0.5-0.225,0.5-0.5v-12c0-0.275-0.225-0.5-0.5-0.5H380.554z"/>
		</g>
		<g>
			<path fill="#626C84" d="M229.347,335.323h-12c-0.827,0-1.5-0.673-1.5-1.5v-12c0-0.827,0.673-1.5,1.5-1.5h12
				c0.827,0,1.5,0.673,1.5,1.5v12C230.847,334.65,230.174,335.323,229.347,335.323z M217.347,321.323c-0.276,0-0.5,0.225-0.5,0.5v12
				c0,0.275,0.224,0.5,0.5,0.5h12c0.276,0,0.5-0.225,0.5-0.5v-12c0-0.275-0.224-0.5-0.5-0.5H217.347z"/>
		</g>
		<g>
			<path fill="#626C84" d="M207.446,335.323h-12c-0.827,0-1.5-0.673-1.5-1.5v-12c0-0.827,0.673-1.5,1.5-1.5h12
				c0.827,0,1.5,0.673,1.5,1.5v12C208.946,334.65,208.273,335.323,207.446,335.323z M195.446,321.323c-0.276,0-0.5,0.225-0.5,0.5v12
				c0,0.275,0.224,0.5,0.5,0.5h12c0.276,0,0.5-0.225,0.5-0.5v-12c0-0.275-0.224-0.5-0.5-0.5H195.446z"/>
		</g>
		<g>
			<path fill="#626C84" d="M251.248,335.323h-12c-0.827,0-1.5-0.673-1.5-1.5v-12c0-0.827,0.673-1.5,1.5-1.5h12
				c0.827,0,1.5,0.673,1.5,1.5v12C252.748,334.65,252.075,335.323,251.248,335.323z M239.248,321.323c-0.276,0-0.5,0.225-0.5,0.5v12
				c0,0.275,0.224,0.5,0.5,0.5h12c0.276,0,0.5-0.225,0.5-0.5v-12c0-0.275-0.224-0.5-0.5-0.5H239.248z"/>
		</g>
		<g>
			<path fill="#626C84" d="M273.149,335.323h-12c-0.827,0-1.5-0.673-1.5-1.5v-12c0-0.827,0.673-1.5,1.5-1.5h12
				c0.827,0,1.5,0.673,1.5,1.5v12C274.649,334.65,273.976,335.323,273.149,335.323z M261.149,321.323c-0.276,0-0.5,0.225-0.5,0.5v12
				c0,0.275,0.224,0.5,0.5,0.5h12c0.276,0,0.5-0.225,0.5-0.5v-12c0-0.275-0.224-0.5-0.5-0.5H261.149z"/>
		</g>
		<g>
			<path fill="#626C84" d="M295.05,335.323h-12c-0.827,0-1.5-0.673-1.5-1.5v-12c0-0.827,0.673-1.5,1.5-1.5h12
				c0.827,0,1.5,0.673,1.5,1.5v12C296.55,334.65,295.877,335.323,295.05,335.323z M283.05,321.323c-0.276,0-0.5,0.225-0.5,0.5v12
				c0,0.275,0.224,0.5,0.5,0.5h12c0.276,0,0.5-0.225,0.5-0.5v-12c0-0.275-0.224-0.5-0.5-0.5H283.05z"/>
		</g>
		<g>
			<path fill="#626C84" d="M316.95,335.323h-12c-0.827,0-1.5-0.673-1.5-1.5v-12c0-0.827,0.673-1.5,1.5-1.5h12
				c0.827,0,1.5,0.673,1.5,1.5v12C318.45,334.65,317.777,335.323,316.95,335.323z M304.95,321.323c-0.275,0-0.5,0.225-0.5,0.5v12
				c0,0.275,0.225,0.5,0.5,0.5h12c0.275,0,0.5-0.225,0.5-0.5v-12c0-0.275-0.225-0.5-0.5-0.5H304.95z"/>
		</g>
		<g>
			<path fill="#626C84" d="M338.851,335.323h-12c-0.827,0-1.5-0.673-1.5-1.5v-12c0-0.827,0.673-1.5,1.5-1.5h12
				c0.827,0,1.5,0.673,1.5,1.5v12C340.351,334.65,339.678,335.323,338.851,335.323z M326.851,321.323c-0.275,0-0.5,0.225-0.5,0.5v12
				c0,0.275,0.225,0.5,0.5,0.5h12c0.275,0,0.5-0.225,0.5-0.5v-12c0-0.275-0.225-0.5-0.5-0.5H326.851z"/>
		</g>
		<g>
			<path fill="#626C84" d="M360.752,335.323h-12c-0.827,0-1.5-0.673-1.5-1.5v-12c0-0.827,0.673-1.5,1.5-1.5h12
				c0.827,0,1.5,0.673,1.5,1.5v12C362.252,334.65,361.579,335.323,360.752,335.323z M348.752,321.323c-0.275,0-0.5,0.225-0.5,0.5v12
				c0,0.275,0.225,0.5,0.5,0.5h12c0.275,0,0.5-0.225,0.5-0.5v-12c0-0.275-0.225-0.5-0.5-0.5H348.752z"/>
		</g>
		<g>
			<path fill="#626C84" d="M382.653,335.323h-12c-0.827,0-1.5-0.673-1.5-1.5v-12c0-0.827,0.673-1.5,1.5-1.5h12
				c0.827,0,1.5,0.673,1.5,1.5v12C384.153,334.65,383.48,335.323,382.653,335.323z M370.653,321.323c-0.275,0-0.5,0.225-0.5,0.5v12
				c0,0.275,0.225,0.5,0.5,0.5h12c0.275,0,0.5-0.225,0.5-0.5v-12c0-0.275-0.225-0.5-0.5-0.5H370.653z"/>
		</g>
		<g>
			<path fill="#626C84" d="M404.554,335.323h-12c-0.827,0-1.5-0.673-1.5-1.5v-12c0-0.827,0.673-1.5,1.5-1.5h12
				c0.827,0,1.5,0.673,1.5,1.5v12C406.054,334.65,405.381,335.323,404.554,335.323z M392.554,321.323c-0.275,0-0.5,0.225-0.5,0.5v12
				c0,0.275,0.225,0.5,0.5,0.5h12c0.275,0,0.5-0.225,0.5-0.5v-12c0-0.275-0.225-0.5-0.5-0.5H392.554z"/>
		</g>
		<path fill="#626C84" d="M217.084,380.823h12c0.552,0,1,0.448,1,1v12c0,0.552-0.448,1-1,1h-12c-0.552,0-1-0.448-1-1v-12
			C216.084,381.271,216.532,380.823,217.084,380.823z"/>
		<path fill="#626C84" d="M195.446,380.823h12c0.552,0,1,0.448,1,1v12c0,0.552-0.448,1-1,1h-12c-0.552,0-1-0.448-1-1v-12
			C194.446,381.271,194.894,380.823,195.446,380.823z"/>
		<path fill="#626C84" d="M238.723,380.823h98.554c0.552,0,1,0.448,1,1v12c0,0.552-0.448,1-1,1h-98.554c-0.552,0-1-0.448-1-1v-12
			C237.723,381.271,238.171,380.823,238.723,380.823z"/>
		<path fill="#626C84" d="M346.916,380.823h12c0.552,0,1,0.448,1,1v12c0,0.552-0.448,1-1,1h-12c-0.552,0-1-0.448-1-1v-12
			C345.916,381.271,346.364,380.823,346.916,380.823z"/>
		<path fill="#626C84" d="M382.554,388.698h8c0.552,0,1,0.448,1,1v4.125c0,0.552-0.448,1-1,1h-8c-0.552,0-1-0.448-1-1v-4.125
			C381.554,389.146,382.002,388.698,382.554,388.698z"/>
		<path fill="#626C84" d="M382.554,380.823h8c0.552,0,1,0.448,1,1v4.125c0,0.552-0.448,1-1,1h-8c-0.552,0-1-0.448-1-1v-4.125
			C381.554,381.271,382.002,380.823,382.554,380.823z"/>
		<path fill="#626C84" d="M396.554,388.698h8c0.552,0,1,0.448,1,1v4.125c0,0.552-0.448,1-1,1h-8c-0.552,0-1-0.448-1-1v-4.125
			C395.554,389.146,396.002,388.698,396.554,388.698z"/>
		<path fill="#626C84" d="M368.554,388.698h8c0.552,0,1,0.448,1,1v4.125c0,0.552-0.448,1-1,1h-8c-0.552,0-1-0.448-1-1v-4.125
			C367.554,389.146,368.002,388.698,368.554,388.698z"/>
		<path fill="#626C84" d="M195.446,360.904h31.639c0.552,0,1,0.448,1,1v12c0,0.552-0.448,1-1,1h-31.639c-0.552,0-1-0.448-1-1v-12
			C194.446,361.352,194.894,360.904,195.446,360.904z"/>
		<path fill="#626C84" d="M236.904,360.904h12c0.552,0,1,0.448,1,1v12c0,0.552-0.448,1-1,1h-12c-0.552,0-1-0.448-1-1v-12
			C235.904,361.352,236.352,360.904,236.904,360.904z"/>
		<path fill="#626C84" d="M258.542,360.904h12c0.552,0,1,0.448,1,1v12c0,0.552-0.448,1-1,1h-12c-0.552,0-1-0.448-1-1v-12
			C257.542,361.352,257.99,360.904,258.542,360.904z"/>
		<path fill="#626C84" d="M280.181,360.904h12c0.552,0,1,0.448,1,1v12c0,0.552-0.448,1-1,1h-12c-0.552,0-1-0.448-1-1v-12
			C279.181,361.352,279.629,360.904,280.181,360.904z"/>
		<path fill="#626C84" d="M301.819,360.904h12c0.552,0,1,0.448,1,1v12c0,0.552-0.448,1-1,1h-12c-0.552,0-1-0.448-1-1v-12
			C300.819,361.352,301.267,360.904,301.819,360.904z"/>
		<path fill="#626C84" d="M323.458,360.904h12c0.552,0,1,0.448,1,1v12c0,0.552-0.448,1-1,1h-12c-0.552,0-1-0.448-1-1v-12
			C322.458,361.352,322.906,360.904,323.458,360.904z"/>
		<path fill="#626C84" d="M345.096,360.904h12c0.552,0,1,0.448,1,1v12c0,0.552-0.448,1-1,1h-12c-0.552,0-1-0.448-1-1v-12
			C344.096,361.352,344.544,360.904,345.096,360.904z"/>
		<path fill="#626C84" d="M368.554,360.904h36c0.552,0,1,0.448,1,1v12c0,0.552-0.448,1-1,1h-36c-0.552,0-1-0.448-1-1v-12
			C367.554,361.352,368.002,360.904,368.554,360.904z"/>
		<path fill="#626C84" d="M229.084,340.424h12c0.552,0,1,0.448,1,1v12c0,0.552-0.448,1-1,1h-12c-0.552,0-1-0.448-1-1v-12
			C228.084,340.872,228.532,340.424,229.084,340.424z"/>
		<path fill="#626C84" d="M195.446,340.424h24c0.552,0,1,0.448,1,1v12c0,0.552-0.448,1-1,1h-24c-0.552,0-1-0.448-1-1v-12
			C194.446,340.872,194.894,340.424,195.446,340.424z"/>
		<path fill="#626C84" d="M250.723,340.424h12c0.552,0,1,0.448,1,1v12c0,0.552-0.448,1-1,1h-12c-0.552,0-1-0.448-1-1v-12
			C249.723,340.872,250.171,340.424,250.723,340.424z"/>
		<path fill="#626C84" d="M272.361,340.424h12c0.552,0,1,0.448,1,1v12c0,0.552-0.448,1-1,1h-12c-0.552,0-1-0.448-1-1v-12
			C271.361,340.872,271.809,340.424,272.361,340.424z"/>
		<path fill="#626C84" d="M294,340.424h12c0.552,0,1,0.448,1,1v12c0,0.552-0.448,1-1,1h-12c-0.552,0-1-0.448-1-1v-12
			C293,340.872,293.448,340.424,294,340.424z"/>
		<path fill="#626C84" d="M315.639,340.424h12c0.552,0,1,0.448,1,1v12c0,0.552-0.448,1-1,1h-12c-0.552,0-1-0.448-1-1v-12
			C314.639,340.872,315.087,340.424,315.639,340.424z"/>
		<path fill="#626C84" d="M337.277,340.424h12c0.552,0,1,0.448,1,1v12c0,0.552-0.448,1-1,1h-12c-0.552,0-1-0.448-1-1v-12
			C336.277,340.872,336.725,340.424,337.277,340.424z"/>
		<path fill="#626C84" d="M358.916,340.424h12c0.552,0,1,0.448,1,1v12c0,0.552-0.448,1-1,1h-12c-0.552,0-1-0.448-1-1v-12
			C357.916,340.872,358.364,340.424,358.916,340.424z"/>
		<path fill="#626C84" d="M380.554,340.424h24c0.552,0,1,0.448,1,1v12c0,0.552-0.448,1-1,1h-24c-0.552,0-1-0.448-1-1v-12
			C379.554,340.872,380.002,340.424,380.554,340.424z"/>
		<path fill="#626C84" d="M217.347,320.823h12c0.552,0,1,0.448,1,1v12c0,0.552-0.448,1-1,1h-12c-0.552,0-1-0.448-1-1v-12
			C216.347,321.271,216.795,320.823,217.347,320.823z"/>
		<path fill="#626C84" d="M195.446,320.823h12c0.552,0,1,0.448,1,1v12c0,0.552-0.448,1-1,1h-12c-0.552,0-1-0.448-1-1v-12
			C194.446,321.271,194.894,320.823,195.446,320.823z"/>
		<path fill="#626C84" d="M239.248,320.823h12c0.552,0,1,0.448,1,1v12c0,0.552-0.448,1-1,1h-12c-0.552,0-1-0.448-1-1v-12
			C238.248,321.271,238.696,320.823,239.248,320.823z"/>
		<path fill="#626C84" d="M261.149,320.823h12c0.552,0,1,0.448,1,1v12c0,0.552-0.448,1-1,1h-12c-0.552,0-1-0.448-1-1v-12
			C260.149,321.271,260.597,320.823,261.149,320.823z"/>
		<path fill="#626C84" d="M283.05,320.823h12c0.552,0,1,0.448,1,1v12c0,0.552-0.448,1-1,1h-12c-0.552,0-1-0.448-1-1v-12
			C282.05,321.271,282.498,320.823,283.05,320.823z"/>
		<path fill="#626C84" d="M304.95,320.823h12c0.552,0,1,0.448,1,1v12c0,0.552-0.448,1-1,1h-12c-0.552,0-1-0.448-1-1v-12
			C303.95,321.271,304.398,320.823,304.95,320.823z"/>
		<path fill="#626C84" d="M326.851,320.823h12c0.552,0,1,0.448,1,1v12c0,0.552-0.448,1-1,1h-12c-0.552,0-1-0.448-1-1v-12
			C325.851,321.271,326.299,320.823,326.851,320.823z"/>
		<path fill="#626C84" d="M348.752,320.823h12c0.552,0,1,0.448,1,1v12c0,0.552-0.448,1-1,1h-12c-0.552,0-1-0.448-1-1v-12
			C347.752,321.271,348.2,320.823,348.752,320.823z"/>
		<path fill="#626C84" d="M370.653,320.823h12c0.552,0,1,0.448,1,1v12c0,0.552-0.448,1-1,1h-12c-0.552,0-1-0.448-1-1v-12
			C369.653,321.271,370.101,320.823,370.653,320.823z"/>
		<path fill="#626C84" d="M392.554,320.823h12c0.552,0,1,0.448,1,1v12c0,0.552-0.448,1-1,1h-12c-0.552,0-1-0.448-1-1v-12
			C391.554,321.271,392.002,320.823,392.554,320.823z"/>
		<path fill="#626C84" d="M215,288.92h170l0,0v13.446c0,2.209-1.791,4-4,4H219c-2.209,0-4-1.791-4-4V288.92L215,288.92z"/>
		<rect x="215" y="288.92" opacity="0.12" fill="#FFFFFF" enable-background="new    " width="170" height="2"/>
		<path opacity="0.25" fill="#626C84" enable-background="new    " d="M381,302.365H219c-2.209,0-4-1.791-4-4v4c0,2.209,1.791,4,4,4
			h162c2.209,0,4-1.791,4-4v-4C385,300.574,383.209,302.365,381,302.365z"/>
		<g>
			<path fill="#46505C" d="M381,307.366H219c-2.757,0-5-2.243-5-5V288.92c0-0.552,0.448-1,1-1h170c0.553,0,1,0.448,1,1v13.446
				C386,305.123,383.757,307.366,381,307.366z M216,289.92v12.446c0,1.654,1.346,3,3,3h162c1.654,0,3-1.346,3-3V289.92H216z"/>
		</g>
		<path fill="#E6F3FF" d="M265,408.323h70c1.105,0,2,0.895,2,2v47c0,1.105-0.895,2-2,2h-70c-1.105,0-2-0.895-2-2v-47
			C263,409.218,263.895,408.323,265,408.323z"/>
		<g>
			<path fill="#626C84" d="M335,459.823h-70c-1.378,0-2.5-1.121-2.5-2.5v-47c0-1.379,1.122-2.5,2.5-2.5h70
				c1.379,0,2.5,1.121,2.5,2.5v47C337.5,458.702,336.379,459.823,335,459.823z M265,408.823c-0.827,0-1.5,0.673-1.5,1.5v47
				c0,0.827,0.673,1.5,1.5,1.5h70c0.827,0,1.5-0.673,1.5-1.5v-47c0-0.827-0.673-1.5-1.5-1.5H265z"/>
		</g>
		<circle opacity="0.52" fill="#FFFFFF" enable-background="new    " cx="300" cy="144.052" r="3"/>
		<g>
			<path fill="#46505C" d="M300,147.552c-1.93,0-3.5-1.57-3.5-3.5s1.57-3.5,3.5-3.5s3.5,1.57,3.5,3.5S301.93,147.552,300,147.552z
				 M300,141.552c-1.378,0-2.5,1.122-2.5,2.5s1.122,2.5,2.5,2.5c1.379,0,2.5-1.122,2.5-2.5S301.379,141.552,300,141.552z"/>
		</g>
		<path fill="#FFFFFF" d="M350.36,165.129h12c0.552,0,1,0.448,1,1l0,0c0,0.552-0.448,1-1,1h-12c-0.552,0-1-0.448-1-1l0,0
			C349.36,165.577,349.808,165.129,350.36,165.129z"/>
		<path fill="#FFFFFF" d="M376.334,165.129h12c0.552,0,1,0.448,1,1l0,0c0,0.552-0.448,1-1,1h-12c-0.552,0-1-0.448-1-1l0,0
			C375.334,165.577,375.782,165.129,376.334,165.129z"/>
		<path fill="#FFFFFF" d="M324.387,165.129h12c0.552,0,1,0.448,1,1l0,0c0,0.552-0.448,1-1,1h-12c-0.552,0-1-0.448-1-1l0,0
			C323.387,165.577,323.835,165.129,324.387,165.129z"/>
		<circle fill="#FFFFFF" cx="207.233" cy="166.65" r="4.837"/>
		<g opacity="0.72">
			<rect x="249.324" y="219.611" fill="#FFFFFF" width="101.234" height="3.645"/>
			<rect x="262.127" y="207.513" fill="#FFFFFF" width="75.629" height="3.698"/>
		</g>
		<g>
			<path fill="#FFFFFF" d="M317.405,259.407h-28.812c-3.298,0-5.981-2.683-5.981-5.981c0-3.298,2.683-5.981,5.981-5.981h28.812
				c3.298,0,5.98,2.683,5.98,5.981C323.386,256.724,320.703,259.407,317.405,259.407z M288.594,248.445
				c-2.747,0-4.981,2.234-4.981,4.981s2.234,4.981,4.981,4.981h28.812c2.746,0,4.98-2.235,4.98-4.981s-2.234-4.981-4.98-4.981
				H288.594z"/>
		</g>
	</g>
</g>
</svg>