<?xml version="1.0"?>
<svg xmlns="http://www.w3.org/2000/svg" xmlns:xlink="http://www.w3.org/1999/xlink" xmlns:svgjs="http://svgjs.com/svgjs" version="1.1" width="512" height="512" x="0" y="0" viewBox="0 0 513.434 513.434" style="enable-background:new 0 0 512 512" xml:space="preserve" class=""><g><g xmlns="http://www.w3.org/2000/svg"><path d="m445.934 188.92c-7.993 0-15.786 1.381-23.217 4.109v-132.312h-147.157l15.812 38.171.086.206c2.028 4.695 3.056 9.688 3.056 14.84 0 20.678-16.822 37.5-37.5 37.5s-37.5-16.822-37.5-37.5c0-5.15 1.028-10.145 3.057-14.843l15.898-38.374h-147.752v132.313c-7.431-2.729-15.224-4.109-23.217-4.109-37.22 0-67.5 30.28-67.5 67.5s30.28 67.5 67.5 67.5c7.994 0 15.787-1.381 23.217-4.11v132.907h147.157l-15.812-38.171-.086-.206c-2.028-4.695-3.056-9.688-3.056-14.84 0-20.678 16.822-37.5 37.5-37.5s37.5 16.822 37.5 37.5c0 5.15-1.028 10.145-3.057 14.843l-15.898 38.374h147.751v-132.908c7.43 2.729 15.223 4.11 23.217 4.11 37.22 0 67.5-30.28 67.5-67.5s-30.28-67.5-67.499-67.5z" fill="#dd4814" data-original="#000000" style="" class=""/></g></g></svg>
