<?xml version="1.0" encoding="utf-8"?>
<!-- Generator: Adobe Illustrator 25.2.0, SVG Export Plug-In . SVG Version: 6.00 Build 0)  -->
<svg version="1.1" id="Layer_1" xmlns="http://www.w3.org/2000/svg" xmlns:xlink="http://www.w3.org/1999/xlink" x="0px" y="0px"
	 viewBox="0 0 1920 1920" style="enable-background:new 0 0 1920 1920;" xml:space="preserve">
<style type="text/css">
	.st0{display:none;}
	.st1{fill:url(#SVGID_1_);}
	.st2{fill:url(#SVGID_2_);}
	.st3{fill:url(#SVGID_3_);}
	.st4{fill:url(#SVGID_4_);}
	.st5{fill:url(#SVGID_5_);}
	.st6{fill:url(#SVGID_6_);}
	.st7{fill:url(#SVGID_7_);}
	.st8{fill:url(#SVGID_8_);}
	.st9{fill:url(#SVGID_9_);}
	.st10{clip-path:url(#SVGID_11_);fill:#E92300;}
	.st11{clip-path:url(#SVGID_13_);fill:#E82300;}
	.st12{clip-path:url(#SVGID_15_);fill:#E72300;}
	.st13{clip-path:url(#SVGID_17_);fill:#E62300;}
	.st14{clip-path:url(#SVGID_19_);fill:#E42300;}
	.st15{clip-path:url(#SVGID_21_);fill:#E32300;}
	.st16{clip-path:url(#SVGID_23_);fill:#E22300;}
	.st17{clip-path:url(#SVGID_25_);fill:#E12300;}
	.st18{clip-path:url(#SVGID_27_);fill:#E02200;}
	.st19{clip-path:url(#SVGID_29_);fill:#DF2200;}
	.st20{display:inline;fill:url(#SVGID_30_);}
	.st21{display:inline;fill:url(#SVGID_31_);}
	.st22{display:inline;fill:url(#SVGID_32_);}
	.st23{display:inline;fill:url(#SVGID_33_);}
	.st24{display:inline;fill:url(#SVGID_34_);}
	.st25{display:inline;fill:url(#SVGID_35_);}
	.st26{display:inline;fill:url(#SVGID_36_);}
	.st27{display:inline;fill:url(#SVGID_37_);}
	.st28{display:inline;fill:url(#SVGID_38_);}
	.st29{display:inline;fill:url(#SVGID_39_);}
</style>
<g id="Palette" class="st0">
	
		<image style="display:inline;overflow:visible;enable-background:new    ;" width="1279" height="680" xlink:href="CCB74B5.jpeg"  transform="matrix(1.9975 0 0 1.9975 2277.9988 -1061)">
	</image>
</g>
<g id="Logo">
	
		<linearGradient id="SVGID_1_" gradientUnits="userSpaceOnUse" x1="1237.7312" y1="806.0067" x2="1558.4971" y2="1138.5438" gradientTransform="matrix(1 0 0 -1 0 1920)">
		<stop  offset="2.024560e-07" style="stop-color:#F52500"/>
		<stop  offset="1" style="stop-color:#D52100"/>
	</linearGradient>
	<path class="st1" d="M1265.9,994.2l187-187c22.5-22.5,59.4-22.5,81.9,0l3.6,3.6c22.5,22.5,22.5,59.4,0,81.9l-187,187
		c-22.5,22.5-59.4,22.5-81.9,0l-3.6-3.6C1243.4,1053.6,1243.4,1016.8,1265.9,994.2z"/>
	
		<linearGradient id="SVGID_2_" gradientUnits="userSpaceOnUse" x1="671.972" y1="1316.0225" x2="359.116" y2="1001.2049" gradientTransform="matrix(1 0 0 -1 0 1920)">
		<stop  offset="2.024560e-07" style="stop-color:#F52500"/>
		<stop  offset="1" style="stop-color:#D52100"/>
	</linearGradient>
	<path class="st2" d="M655.1,707.4l-187,187c-22.5,22.5-59.4,22.5-81.9,0l-3.6-3.6c-22.5-22.5-22.5-59.4,0-81.9l187-187
		c22.5-22.5,59.4-22.5,81.9,0l3.6,3.6C677.6,648,677.6,684.9,655.1,707.4z"/>
	
		<linearGradient id="SVGID_3_" gradientUnits="userSpaceOnUse" x1="370.3756" y1="1131.5338" x2="686.2254" y2="805.8749" gradientTransform="matrix(1 0 0 -1 0 1920)">
		<stop  offset="2.024560e-07" style="stop-color:#F52500"/>
		<stop  offset="1" style="stop-color:#D52100"/>
	</linearGradient>
	<path class="st3" d="M655.1,992.2l-187-187c-22.5-22.5-59.4-22.5-81.9,0l-3.6,3.6c-22.5,22.5-22.5,59.4,0,81.9l187,187
		c22.5,22.5,59.4,22.5,81.9,0l3.6-3.6C677.6,1051.6,677.6,1014.8,655.1,992.2z"/>
	
		<linearGradient id="SVGID_4_" gradientUnits="userSpaceOnUse" x1="1568.1068" y1="992.4945" x2="1228.7653" y2="1334.7782" gradientTransform="matrix(1 0 0 -1 0 1920)">
		<stop  offset="2.024560e-07" style="stop-color:#F52500"/>
		<stop  offset="1" style="stop-color:#D52100"/>
	</linearGradient>
	<path class="st4" d="M1265.9,709.4l187,187c22.5,22.5,59.4,22.5,81.9,0l3.6-3.6c22.5-22.5,22.5-59.4,0-81.9l-187-187
		c-22.5-22.5-59.4-22.5-81.9,0l-3.6,3.6C1243.4,650,1243.4,686.9,1265.9,709.4z"/>
	
		<linearGradient id="SVGID_5_" gradientUnits="userSpaceOnUse" x1="739.7729" y1="1225.4125" x2="743.9872" y2="916.0824" gradientTransform="matrix(1 0 0 -1 0 1920)">
		<stop  offset="0" style="stop-color:#3F3D55"/>
		<stop  offset="1" style="stop-color:#2E2F41"/>
	</linearGradient>
	<path class="st5" d="M821,813.5h-44.8v-44.8c0-18.9-15.4-34.3-34.3-34.3l0,0c-18.9,0-34.3,15.4-34.3,34.3v44.8h-44.8
		c-18.9,0-34.3,15.4-34.3,34.3l0,0c0,18.9,15.4,34.3,34.3,34.3h44.8v44.8c0,18.9,15.4,34.3,34.3,34.3l0,0
		c18.9,0,34.3-15.4,34.3-34.3v-44.8H821c18.9,0,34.3-15.4,34.3-34.3l0,0C855.3,828.9,839.8,813.5,821,813.5z"/>
	
		<linearGradient id="SVGID_6_" gradientUnits="userSpaceOnUse" x1="1185.4722" y1="1229.1996" x2="1179.0126" y2="930.7649" gradientTransform="matrix(1 0 0 -1 0 1920)">
		<stop  offset="0" style="stop-color:#3F3D55"/>
		<stop  offset="1" style="stop-color:#2E2F41"/>
	</linearGradient>
	<circle class="st6" cx="1183.8" cy="766.2" r="35.1"/>
	
		<linearGradient id="SVGID_7_" gradientUnits="userSpaceOnUse" x1="1188.9694" y1="1229.124" x2="1182.5096" y2="930.6893" gradientTransform="matrix(1 0 0 -1 0 1920)">
		<stop  offset="0" style="stop-color:#3F3D55"/>
		<stop  offset="1" style="stop-color:#2E2F41"/>
	</linearGradient>
	<circle class="st7" cx="1183.8" cy="927.8" r="35.1"/>
	
		<linearGradient id="SVGID_8_" gradientUnits="userSpaceOnUse" x1="1268.0129" y1="1227.4131" x2="1261.5533" y2="928.9783" gradientTransform="matrix(1 0 0 -1 0 1920)">
		<stop  offset="0" style="stop-color:#3F3D55"/>
		<stop  offset="1" style="stop-color:#2E2F41"/>
	</linearGradient>
	<circle class="st8" cx="1264.7" cy="847" r="35.1"/>
	
		<linearGradient id="SVGID_9_" gradientUnits="userSpaceOnUse" x1="1106.4386" y1="1230.9104" x2="1099.979" y2="932.4756" gradientTransform="matrix(1 0 0 -1 0 1920)">
		<stop  offset="0" style="stop-color:#3F3D55"/>
		<stop  offset="1" style="stop-color:#2E2F41"/>
	</linearGradient>
	<circle class="st9" cx="1103" cy="847" r="35.1"/>
	<g>
		<g>
			<g>
				<defs>
					<path id="SVGID_10_" d="M883.7,1005.9L883.7,1005.9c16.7,8.7,37.5,2.1,46.1-14.7L1058.4,743c8.7-16.7,2.1-37.5-14.7-46.1l0,0
						c-16.7-8.7-37.5-2.1-46.1,14.7L869.1,959.8C860.4,976.5,867,997.2,883.7,1005.9z"/>
				</defs>
				<clipPath id="SVGID_11_">
					<use xlink:href="#SVGID_10_"  style="overflow:visible;"/>
				</clipPath>
				<polygon class="st10" points="1067.6,700.3 1044.1,687.6 1067.6,687.6 				"/>
			</g>
			<g>
				<defs>
					<path id="SVGID_12_" d="M883.7,1005.9L883.7,1005.9c16.7,8.7,37.5,2.1,46.1-14.7L1058.4,743c8.7-16.7,2.1-37.5-14.7-46.1l0,0
						c-16.7-8.7-37.5-2.1-46.1,14.7L869.1,959.8C860.4,976.5,867,997.2,883.7,1005.9z"/>
				</defs>
				<clipPath id="SVGID_13_">
					<use xlink:href="#SVGID_12_"  style="overflow:visible;"/>
				</clipPath>
				<polygon class="st11" points="1067.6,749.8 1066.3,752.2 992.7,712.5 1006.5,687.6 1044.1,687.6 1067.6,700.3 				"/>
			</g>
			<g>
				<defs>
					<path id="SVGID_14_" d="M883.7,1005.9L883.7,1005.9c16.7,8.7,37.5,2.1,46.1-14.7L1058.4,743c8.7-16.7,2.1-37.5-14.7-46.1l0,0
						c-16.7-8.7-37.5-2.1-46.1,14.7L869.1,959.8C860.4,976.5,867,997.2,883.7,1005.9z"/>
				</defs>
				<clipPath id="SVGID_15_">
					<use xlink:href="#SVGID_14_"  style="overflow:visible;"/>
				</clipPath>
				<polygon class="st12" points="1066.3,752.2 1043.9,792.8 970.3,753 992.7,712.5 				"/>
			</g>
			<g>
				<defs>
					<path id="SVGID_16_" d="M883.7,1005.9L883.7,1005.9c16.7,8.7,37.5,2.1,46.1-14.7L1058.4,743c8.7-16.7,2.1-37.5-14.7-46.1l0,0
						c-16.7-8.7-37.5-2.1-46.1,14.7L869.1,959.8C860.4,976.5,867,997.2,883.7,1005.9z"/>
				</defs>
				<clipPath id="SVGID_17_">
					<use xlink:href="#SVGID_16_"  style="overflow:visible;"/>
				</clipPath>
				<polygon class="st13" points="1043.9,792.8 1021.5,833.3 947.9,793.6 970.3,753 				"/>
			</g>
			<g>
				<defs>
					<path id="SVGID_18_" d="M883.7,1005.9L883.7,1005.9c16.7,8.7,37.5,2.1,46.1-14.7L1058.4,743c8.7-16.7,2.1-37.5-14.7-46.1l0,0
						c-16.7-8.7-37.5-2.1-46.1,14.7L869.1,959.8C860.4,976.5,867,997.2,883.7,1005.9z"/>
				</defs>
				<clipPath id="SVGID_19_">
					<use xlink:href="#SVGID_18_"  style="overflow:visible;"/>
				</clipPath>
				<polygon class="st14" points="1021.5,833.3 999.1,873.9 925.5,834.1 947.9,793.6 				"/>
			</g>
			<g>
				<defs>
					<path id="SVGID_20_" d="M883.7,1005.9L883.7,1005.9c16.7,8.7,37.5,2.1,46.1-14.7L1058.4,743c8.7-16.7,2.1-37.5-14.7-46.1l0,0
						c-16.7-8.7-37.5-2.1-46.1,14.7L869.1,959.8C860.4,976.5,867,997.2,883.7,1005.9z"/>
				</defs>
				<clipPath id="SVGID_21_">
					<use xlink:href="#SVGID_20_"  style="overflow:visible;"/>
				</clipPath>
				<polygon class="st15" points="999.1,873.9 976.7,914.4 903.1,874.7 925.5,834.1 				"/>
			</g>
			<g>
				<defs>
					<path id="SVGID_22_" d="M883.7,1005.9L883.7,1005.9c16.7,8.7,37.5,2.1,46.1-14.7L1058.4,743c8.7-16.7,2.1-37.5-14.7-46.1l0,0
						c-16.7-8.7-37.5-2.1-46.1,14.7L869.1,959.8C860.4,976.5,867,997.2,883.7,1005.9z"/>
				</defs>
				<clipPath id="SVGID_23_">
					<use xlink:href="#SVGID_22_"  style="overflow:visible;"/>
				</clipPath>
				<polygon class="st16" points="976.7,914.4 954.3,954.9 880.7,915.2 903.1,874.7 				"/>
			</g>
			<g>
				<defs>
					<path id="SVGID_24_" d="M883.7,1005.9L883.7,1005.9c16.7,8.7,37.5,2.1,46.1-14.7L1058.4,743c8.7-16.7,2.1-37.5-14.7-46.1l0,0
						c-16.7-8.7-37.5-2.1-46.1,14.7L869.1,959.8C860.4,976.5,867,997.2,883.7,1005.9z"/>
				</defs>
				<clipPath id="SVGID_25_">
					<use xlink:href="#SVGID_24_"  style="overflow:visible;"/>
				</clipPath>
				<polygon class="st17" points="954.3,954.9 931.9,995.5 859.8,956.6 859.8,953 880.7,915.2 				"/>
			</g>
			<g>
				<defs>
					<path id="SVGID_26_" d="M883.7,1005.9L883.7,1005.9c16.7,8.7,37.5,2.1,46.1-14.7L1058.4,743c8.7-16.7,2.1-37.5-14.7-46.1l0,0
						c-16.7-8.7-37.5-2.1-46.1,14.7L869.1,959.8C860.4,976.5,867,997.2,883.7,1005.9z"/>
				</defs>
				<clipPath id="SVGID_27_">
					<use xlink:href="#SVGID_26_"  style="overflow:visible;"/>
				</clipPath>
				<polygon class="st18" points="931.9,995.5 921,1015.1 870.8,1015.1 859.8,1009.2 859.8,956.6 				"/>
			</g>
			<g>
				<defs>
					<path id="SVGID_28_" d="M883.7,1005.9L883.7,1005.9c16.7,8.7,37.5,2.1,46.1-14.7L1058.4,743c8.7-16.7,2.1-37.5-14.7-46.1l0,0
						c-16.7-8.7-37.5-2.1-46.1,14.7L869.1,959.8C860.4,976.5,867,997.2,883.7,1005.9z"/>
				</defs>
				<clipPath id="SVGID_29_">
					<use xlink:href="#SVGID_28_"  style="overflow:visible;"/>
				</clipPath>
				<polygon class="st19" points="859.8,1009.2 870.8,1015.1 859.8,1015.1 				"/>
			</g>
		</g>
	</g>
	<g class="st0">
		
			<linearGradient id="SVGID_30_" gradientUnits="userSpaceOnUse" x1="595.877" y1="779.8217" x2="592.4799" y2="603.1719" gradientTransform="matrix(1 0 0 -1 0 1920)">
			<stop  offset="2.024560e-07" style="stop-color:#F52500"/>
			<stop  offset="1" style="stop-color:#D52100"/>
		</linearGradient>
		<path class="st20" d="M616.3,1245.7h20.2v26.9c-2.9,1.6-8.5,2.9-16.8,4c-8.3,1.1-15.8,1.7-22.7,1.7c-30.3,0-45.5-11.1-45.5-33.3
			v-50c0-7.1,1.6-13.1,4.8-18.1c3.2-5,7.3-8.7,12.4-11c5.1-2.3,9.9-4,14.4-4.9c4.5-0.9,9.1-1.4,13.8-1.4c6,0,13.4,0.7,22.2,2.1
			s14.5,2.8,17.1,4.2v27.6h-20.2v-9.1c-3.6-1-9.2-1.5-17-1.5h-2.5c-1.5,0-3.2,0.1-5,0.4c-1.8,0.3-4.1,0.8-7,1.7
			c-2.9,0.8-5.2,2.4-7.1,4.8c-1.8,2.3-2.8,5.2-2.8,8.6v45.8c0,3,0.9,5.4,2.8,7.4c1.8,2,4.2,3.3,7.1,4c2.9,0.7,5.2,1.2,6.9,1.4
			c1.7,0.2,3.4,0.3,5.1,0.3h5.2c5.9,0,10.7-0.8,14.5-2.3L616.3,1245.7L616.3,1245.7z"/>
		
			<linearGradient id="SVGID_31_" gradientUnits="userSpaceOnUse" x1="686.494" y1="778.079" x2="683.097" y2="601.4292" gradientTransform="matrix(1 0 0 -1 0 1920)">
			<stop  offset="2.024560e-07" style="stop-color:#F52500"/>
			<stop  offset="1" style="stop-color:#D52100"/>
		</linearGradient>
		<path class="st21" d="M700.5,1193.4c4.7,1.6,8.9,4.7,12.5,9.5c3.6,4.8,5.4,10.9,5.4,18.4v28.8c0,18.8-11.3,28.2-33.8,28.2
			s-33.8-9.4-33.8-28.2v-28.8c0-5.8,1-10.7,3-14.8c2-4.1,4.7-7.2,8.1-9.4c3.4-2.2,7-3.7,10.7-4.7c3.7-0.9,7.7-1.4,12-1.4
			C690.6,1191,695.8,1191.8,700.5,1193.4z M691.7,1255.2c2.4-1.5,3.5-3.8,3.5-7.1v-25.4c0-3.1-1.2-5.3-3.4-6.5s-4.7-1.8-7.1-1.8
			c-2.5,0-4.9,0.6-7.2,1.8c-2.2,1.2-3.3,3.4-3.3,6.5v25.4c0,3.2,1.2,5.6,3.4,7.1s4.7,2.2,7.1,2.2
			C687,1257.4,689.3,1256.6,691.7,1255.2z"/>
		
			<linearGradient id="SVGID_32_" gradientUnits="userSpaceOnUse" x1="771.4538" y1="776.4451" x2="768.0567" y2="599.7953" gradientTransform="matrix(1 0 0 -1 0 1920)">
			<stop  offset="2.024560e-07" style="stop-color:#F52500"/>
			<stop  offset="1" style="stop-color:#D52100"/>
		</linearGradient>
		<path class="st22" d="M806.9,1260.1v17.2h-29.2v-7.2c-4.5,5.5-10.6,8.3-18.5,8.3c-18.2,0-27.3-8.8-27.3-26.3v-29
			c0-11.4,2.7-19.6,8.2-24.6c5.5-4.9,12.5-7.4,21-7.4c5.7,0,11.3,1.2,16.6,3.6v-16.5h-8v-17.4H801v99.4H806.9z M755.2,1251
			c0,4.2,3.8,6.4,11.5,6.4c2,0,4.4-0.6,7.1-1.9c2.7-1.3,4-3.3,4-6.2v-29.2c-0.6-1.8-2-3.2-4.2-4.2c-2.2-1-4.3-1.5-6.3-1.5
			c-8,0-12,2.3-12,7L755.2,1251L755.2,1251z"/>
		
			<linearGradient id="SVGID_33_" gradientUnits="userSpaceOnUse" x1="854.0433" y1="774.8569" x2="850.6462" y2="598.2071" gradientTransform="matrix(1 0 0 -1 0 1920)">
			<stop  offset="2.024560e-07" style="stop-color:#F52500"/>
			<stop  offset="1" style="stop-color:#D52100"/>
		</linearGradient>
		<path class="st23" d="M880.3,1251.7l5.5,19.5c-6,4.8-16.4,7.2-31.3,7.2c-24.1,0-36.1-9-36.1-26.9v-30.7
			c0-19.8,10.9-29.7,32.7-29.7c22.5,0,33.8,9.9,33.8,29.7v24.8h-43.2v3.8c0,5.4,4.1,8.1,12.2,8.1
			C865.9,1257.4,874.7,1255.5,880.3,1251.7z M861.6,1225.8v-4.2c0-4.8-3.2-7.2-9.5-7.2c-6.9,0-10.3,2.4-10.3,7.2v4.2H861.6z"/>
		
			<linearGradient id="SVGID_34_" gradientUnits="userSpaceOnUse" x1="941.6676" y1="564.3667" x2="945.0646" y2="772.7229" gradientTransform="matrix(1 0 0 -1 0 1920)">
			<stop  offset="0" style="stop-color:#3F3D55"/>
			<stop  offset="1" style="stop-color:#2E2F41"/>
		</linearGradient>
		<path class="st24" d="M938.2,1260.1v17.2H899v-17.2h7.6v-82h-8.4v-17.4h55.6c4.3,0,8.3,0.5,11.9,1.6c3.6,1.1,7.2,2.8,10.7,5.3
			c3.5,2.5,6.3,6.2,8.3,11.1s3.1,10.9,3.1,18c0,19.6-7.1,32.2-21.4,37.7c7.9,13.8,12.2,21.5,13,22.9h10.1v19.9H964l-22.7-40.5H930
			v23.3L938.2,1260.1L938.2,1260.1z M957.6,1212.7c2.3-1,3.9-2.4,4.8-4.3c0.9-1.9,1.5-3.6,1.7-5.1c0.2-1.5,0.4-3.4,0.4-5.8
			c0-8.9-5.5-13.3-16.6-13.3h-18v30.1h18.9C952.4,1214.1,955.3,1213.6,957.6,1212.7z"/>
		
			<linearGradient id="SVGID_35_" gradientUnits="userSpaceOnUse" x1="1032.8108" y1="562.8807" x2="1036.208" y2="771.2368" gradientTransform="matrix(1 0 0 -1 0 1920)">
			<stop  offset="0" style="stop-color:#3F3D55"/>
			<stop  offset="1" style="stop-color:#2E2F41"/>
		</linearGradient>
		<path class="st25" d="M1050.7,1193.4c4.7,1.6,8.9,4.7,12.5,9.5c3.6,4.8,5.4,10.9,5.4,18.4v28.8c0,18.8-11.3,28.2-33.8,28.2
			s-33.8-9.4-33.8-28.2v-28.8c0-5.8,1-10.7,3-14.8c2-4.1,4.7-7.2,8.1-9.4c3.4-2.2,7-3.7,10.7-4.7c3.7-0.9,7.7-1.4,12-1.4
			C1040.7,1191,1045.9,1191.8,1050.7,1193.4z M1041.8,1255.2c2.4-1.5,3.5-3.8,3.5-7.1v-25.4c0-3.1-1.2-5.3-3.4-6.5
			c-2.3-1.2-4.7-1.8-7.1-1.8c-2.6,0-4.9,0.6-7.2,1.8c-2.2,1.2-3.3,3.4-3.3,6.5v25.4c0,3.2,1.2,5.6,3.4,7.1c2.3,1.5,4.7,2.2,7.1,2.2
			C1037.1,1257.4,1039.4,1256.6,1041.8,1255.2z"/>
		
			<linearGradient id="SVGID_36_" gradientUnits="userSpaceOnUse" x1="1117.7903" y1="561.4951" x2="1121.1875" y2="769.8513" gradientTransform="matrix(1 0 0 -1 0 1920)">
			<stop  offset="0" style="stop-color:#3F3D55"/>
			<stop  offset="1" style="stop-color:#2E2F41"/>
		</linearGradient>
		<path class="st26" d="M1090.2,1290.2c4.6,1.7,7.4,2.5,8.4,2.5c2.6,0,4.6-1.8,6.1-5.5l5.2-12.7l-24.1-64.6h-7.6v-17.4h38.6v17.4
			h-6.5l9.7,35.8l10.5-35.8h-6.1v-17.4h38.2v17.4h-7.4l-30,85c-4.6,12.7-12.2,19.1-22.9,19.1c-5.6,0-11.4-1.4-17.4-4.2
			L1090.2,1290.2z"/>
		
			<linearGradient id="SVGID_37_" gradientUnits="userSpaceOnUse" x1="1205.3124" y1="560.0681" x2="1208.7095" y2="768.4243" gradientTransform="matrix(1 0 0 -1 0 1920)">
			<stop  offset="0" style="stop-color:#3F3D55"/>
			<stop  offset="1" style="stop-color:#2E2F41"/>
		</linearGradient>
		<path class="st27" d="M1243.6,1260.1v17.2h-28.5v-7.6c-5.1,5.8-12,8.7-20.6,8.7c-7.8,0-13.8-1.7-17.9-5.1s-6.3-9.3-6.3-17.8v-4.9
			c0-2.7,0.2-5.1,0.8-7.3c0.5-2.2,1.5-4.1,3.1-5.7c1.5-1.6,2.9-3,4-4.1s3.1-2.2,5.8-3.1c2.7-0.9,4.8-1.6,6.3-2.1
			c1.5-0.5,4-1,7.7-1.6c3.7-0.6,6.3-0.9,7.8-1.1c1.5-0.1,4.4-0.4,8.6-0.8v-3.6c0-4.5-3.7-6.8-11.1-6.8h-1.3c-3.8,0-6.9,0.3-9.4,1.1
			v6.4h-19.7v-24.6c10.9-4.1,21.1-6.2,30.4-6.2c4.6,0,8.6,0.3,12.1,1.1c3.5,0.7,7.1,2.1,10.7,4s6.5,5.2,8.5,9.5s3.1,9.8,3.1,16.3
			v38.2L1243.6,1260.1L1243.6,1260.1z M1214.3,1245.5c-13.9,0-20.8,2-20.8,5.9v2.8c0,2.1,1.8,3.2,5.3,3.2c6.8,0,11.9-2.1,15.5-6.4
			V1245.5z"/>
		
			<linearGradient id="SVGID_38_" gradientUnits="userSpaceOnUse" x1="1271.9847" y1="558.9811" x2="1275.3818" y2="767.3372" gradientTransform="matrix(1 0 0 -1 0 1920)">
			<stop  offset="0" style="stop-color:#3F3D55"/>
			<stop  offset="1" style="stop-color:#2E2F41"/>
		</linearGradient>
		<path class="st28" d="M1255,1260.1h7.6v-82h-7.6v-17.4h30.9v99.4h7.6v17.2H1255V1260.1z"/>
		
			<linearGradient id="SVGID_39_" gradientUnits="userSpaceOnUse" x1="1338.7723" y1="557.8922" x2="1342.1694" y2="766.2483" gradientTransform="matrix(1 0 0 -1 0 1920)">
			<stop  offset="0" style="stop-color:#3F3D55"/>
			<stop  offset="1" style="stop-color:#2E2F41"/>
		</linearGradient>
		<path class="st29" d="M1368.8,1251.7l5.5,19.5c-6,4.8-16.4,7.2-31.3,7.2c-24.1,0-36.1-9-36.1-26.9v-30.7
			c0-19.8,10.9-29.7,32.7-29.7c22.5,0,33.8,9.9,33.8,29.7v24.8h-43.2v3.8c0,5.4,4.1,8.1,12.2,8.1
			C1354.5,1257.4,1363.2,1255.5,1368.8,1251.7z M1350.1,1225.8v-4.2c0-4.8-3.2-7.2-9.6-7.2c-6.9,0-10.3,2.4-10.3,7.2v4.2H1350.1z"/>
	</g>
</g>
</svg>
