<?xml version="1.0" encoding="UTF-8"?><svg version="1.1" id="Layer_1" xmlns="http://www.w3.org/2000/svg" xmlns:xlink="http://www.w3.org/1999/xlink" x="0px" y="0px" viewBox="0 0 1000 1000" enable-background="new 0 0 1000 1000" xml:space="preserve" width="1000px" height="1000px">
<g>
	<g id="Layer_1_1_">
		
			<linearGradient id="SVGID_1_" gradientUnits="userSpaceOnUse" x1="505.007" y1="805.275" x2="505.007" y2="280.795" gradientTransform="matrix(1 0 0 -1 0 1000)">
			<stop offset="0" style="stop-color:#FFFFFF"/>
			<stop offset="0.093" style="stop-color:#FFFFFF;stop-opacity:0.864"/>
			<stop offset="0.284" style="stop-color:#FFFFFF;stop-opacity:0.605"/>
			<stop offset="0.466" style="stop-color:#FFFFFF;stop-opacity:0.389"/>
			<stop offset="0.633" style="stop-color:#FFFFFF;stop-opacity:0.221"/>
			<stop offset="0.784" style="stop-color:#FFFFFF;stop-opacity:0.1"/>
			<stop offset="0.911" style="stop-color:#FFFFFF;stop-opacity:0.026"/>
			<stop offset="1" style="stop-color:#FFFFFF;stop-opacity:0"/>
		</linearGradient>
		<polygon opacity="0.43" fill="url(#SVGID_1_)" enable-background="new    " points="813.971,701.562 196.043,701.562 
			427.014,201.676 583,201.676 		"/>
		<g>
			<path fill="#283035" d="M182.566,565.775c-0.272,0-0.548-0.028-0.825-0.086c-2.162-0.454-3.547-2.574-3.093-4.736l7.832-37.326
				c0.321-1.531,1.505-2.734,3.03-3.08l41.168-9.333c2.156-0.487,4.297,0.863,4.785,3.017c0.489,2.155-0.862,4.297-3.017,4.786
				l-38.665,8.766l-7.305,34.813C186.081,564.48,184.418,565.775,182.566,565.775z"/>
		</g>
		<path fill="#D2DCE6" d="M310.7,435.853h337.778c9.451,0,17.113,7.662,17.113,17.113v222.887l0,0h-372l0,0V452.965
			C293.592,443.516,301.251,435.855,310.7,435.853z"/>
		<g>
			<path fill="#283035" d="M665.591,678.854h-372c-1.657,0-3-1.343-3-3V452.965c0.001-11.087,9.022-20.109,20.109-20.112h0h337.778
				c11.09,0,20.112,9.022,20.112,20.113v222.888C668.591,677.511,667.248,678.854,665.591,678.854z M296.591,672.854h366V452.966
				c0-7.782-6.331-14.113-14.112-14.113H310.7h0c-7.779,0.001-14.109,6.333-14.11,14.112V672.854z"/>
		</g>
		<rect x="321.591" y="464.136" fill="#FF5C5C" width="316" height="184"/>
		<g opacity="0.3" enable-background="new    ">
			<path fill="#FFFFFF" d="M557.007,621.781h-52c-1.657,0-3-1.343-3-3s1.343-3,3-3h52c1.657,0,3,1.343,3,3
				S558.664,621.781,557.007,621.781z"/>
		</g>
		<g opacity="0.3">
			<path fill="#FFFFFF" d="M631.78,561.585c2.06-0.13,3.94,1.17,4.547,3.143v-11.455c-1.098-0.321-2.236-0.487-3.38-0.492h-1.167
				c-2.516,0-3.774,1.258-3.773,3.773v1.346C628.007,560.327,629.264,561.585,631.78,561.585z"/>
			<path fill="#FFFFFF" d="M636.327,616.494c-0.618,1.962-2.494,3.249-4.547,3.12c-2.516,0-3.774,1.257-3.773,3.772v1.348
				c0,2.515,1.258,3.772,3.773,3.773h1.167c1.144-0.005,2.282-0.171,3.38-0.492V616.494z"/>
		</g>
		<g>
			<path fill="#283035" d="M637.591,651.136h-316c-1.657,0-3-1.343-3-3v-184c0-1.657,1.343-3,3-3h316c1.657,0,3,1.343,3,3v184
				C640.591,649.793,639.248,651.136,637.591,651.136z M324.591,645.136h310v-178h-310V645.136z"/>
		</g>
		<path fill="#E5E5E5" d="M252.543,676h454.1c2.209,0,4,1.791,4,4v4.791c0,11.046-8.954,20-20,20h-422.1c-11.046,0-20-8.954-20-20
			V680C248.543,677.791,250.334,676,252.543,676z"/>
		<path fill="#CFD1D0" d="M690.639,695.787h-422.1c-9.913-0.007-18.323-7.279-19.761-17.087c-0.151,0.417-0.23,0.857-0.235,1.3
			v4.791c0,11.046,8.954,20,20,20h422.1c11.046,0,20-8.954,20-20V680c-0.005-0.443-0.084-0.883-0.235-1.3
			C708.97,688.511,700.555,695.784,690.639,695.787z"/>
		<g>
			<path fill="#283035" d="M690.643,707.791h-422.1c-12.682,0-23-10.317-23-23V680c0-3.859,3.14-7,7-7h454.1c3.859,0,7,3.141,7,7
				v4.791C713.643,697.474,703.325,707.791,690.643,707.791z M252.543,679c-0.551,0-1,0.448-1,1v4.791c0,9.374,7.626,17,17,17h422.1
				c9.374,0,17-7.626,17-17V680c0-0.552-0.448-1-1-1H252.543z"/>
		</g>
		<path fill="#686B6D" d="M437.591,675.853h84l0,0l0,0c0,4.418-3.582,8-8,8h-68C441.173,683.853,437.591,680.271,437.591,675.853
			L437.591,675.853L437.591,675.853z"/>
		<g>
			<path fill="#283035" d="M513.591,685.854h-68c-5.514,0-10-4.486-10-10c0-1.104,0.896-2,2-2h84c1.104,0,2,0.896,2,2
				C523.591,681.367,519.104,685.854,513.591,685.854z M439.934,677.854c0.825,2.328,3.05,4,5.657,4h68c2.607,0,4.832-1.672,5.657-4
				H439.934z"/>
		</g>
		<circle fill="#686B6D" cx="478.804" cy="449.619" r="8"/>
		<g>
			<path fill="#283035" d="M478.804,459.619c-5.514,0-10-4.486-10-10s4.486-10,10-10s10,4.486,10,10
				S484.318,459.619,478.804,459.619z M478.804,443.619c-3.309,0-6,2.691-6,6s2.691,6,6,6s6-2.691,6-6
				S482.113,443.619,478.804,443.619z"/>
		</g>
		<path fill="#EAD57D" d="M153.455,704.787h49.1c3.524,0,6.498-2.619,6.944-6.115l13.115-102.9H133.4l13.116,102.9
			C146.961,702.166,149.933,704.785,153.455,704.787z"/>
		<path fill="#E5C66E" d="M147.048,595.774l10.406,95.034c0.443,4.048,3.863,7.114,7.935,7.114H209.6l-0.095,0.75
			c-0.446,3.496-3.42,6.115-6.944,6.115h-49.1c-3.524,0-6.498-2.62-6.943-6.115L133.4,595.774H147.048z"/>
		<g>
			<path fill="#283035" d="M202.555,707.787h-49.1c-0.001,0-0.001,0-0.002,0c-5.017-0.004-9.278-3.76-9.913-8.736l-13.116-102.9
				c-0.109-0.854,0.155-1.715,0.725-2.361c0.569-0.647,1.39-1.018,2.251-1.018h89.214c0.862,0,1.682,0.37,2.251,1.018
				c0.569,0.646,0.833,1.507,0.725,2.361l-13.115,102.9C211.841,704.031,207.576,707.787,202.555,707.787z M153.458,701.787h49.098
				c2.008,0,3.714-1.502,3.968-3.494l12.684-99.521h-82.4l12.686,99.521C149.746,700.283,151.451,701.785,153.458,701.787z"/>
		</g>
		<polygon fill="#5CBF84" points="219.25,675.164 225.593,625.397 130.42,625.397 136.763,675.164 		"/>
		<polygon fill="#4FB277" points="219.25,675.164 225.593,625.397 130.42,625.397 136.763,675.164 		"/>
		<path fill="#5CBF84" d="M218.856,669.414l5.319-44.017h-79.808l4.9,40.524c0.241,1.993,1.933,3.493,3.941,3.493L218.856,669.414z"/>
		<g>
			<path fill="#283035" d="M219.25,678.164h-82.487c-1.51,0-2.785-1.123-2.976-2.621l-6.343-49.768
				c-0.109-0.854,0.155-1.715,0.725-2.361c0.569-0.647,1.39-1.018,2.251-1.018h95.173c0.862,0,1.682,0.37,2.251,1.018
				c0.569,0.646,0.833,1.507,0.725,2.361l-6.343,49.768C222.035,677.041,220.76,678.164,219.25,678.164z M139.405,672.164h77.203
				l5.578-43.768h-88.359L139.405,672.164z"/>
		</g>
		<path fill="#5CBF84" d="M228.346,595.773H127.668c-6.075,0-11-4.925-11-11l0,0c0-6.075,4.925-11,11-11h100.678
			c6.075,0,11,4.925,11,11l0,0C239.346,590.848,234.421,595.773,228.346,595.773z"/>
		<path fill="#4FB277" d="M228.346,595.773H127.668c-6.075,0-11-4.925-11-11l0,0c0-6.075,4.925-11,11-11h100.678
			c6.075,0,11,4.925,11,11l0,0C239.346,590.848,234.421,595.773,228.346,595.773z"/>
		<path fill="#5CBF84" d="M230.72,591.023h-91.676c-4.763,0-8.625-3.862-8.625-8.625l0,0c0-4.763,3.862-8.625,8.625-8.625h91.676
			c4.763,0,8.625,3.862,8.625,8.625l0,0C239.345,587.161,235.483,591.023,230.72,591.023z"/>
		<g>
			<path fill="#283035" d="M228.346,598.773H127.668c-7.72,0-14-6.28-14-14s6.28-14,14-14h100.678c7.72,0,14,6.28,14,14
				S236.066,598.773,228.346,598.773z M127.668,576.773c-4.411,0-8,3.589-8,8s3.589,8,8,8h100.678c4.411,0,8-3.589,8-8s-3.589-8-8-8
				H127.668z"/>
		</g>
		<polygon fill="#5CBF84" points="138.006,573.774 218.006,573.774 216.423,561.774 139.59,561.774 		"/>
		<polygon fill="#54AF79" points="139.59,561.774 163.062,561.774 157.506,573.774 138.006,573.774 		"/>
		<g>
			<path fill="#283035" d="M218.006,576.774h-80c-0.864,0-1.686-0.373-2.256-1.022s-0.832-1.514-0.718-2.37l1.584-12
				c0.197-1.492,1.469-2.607,2.974-2.607h76.833c1.505,0,2.777,1.115,2.974,2.607l1.583,12c0.113,0.856-0.149,1.721-0.718,2.37
				C219.692,576.402,218.87,576.774,218.006,576.774z M141.428,570.774h73.156l-0.792-6H142.22L141.428,570.774z"/>
		</g>
		<path fill="#E5E5E5" d="M721.134,704.886c0.094-16.01,13.149-28.913,29.159-28.82c15.878,0.093,28.727,12.942,28.82,28.82H721.134
			z"/>
		<path fill="#CFD1D0" d="M750.124,695.729c8.388,0.08,16.4-3.47,21.976-9.736c-10.422-12.137-28.71-13.528-40.848-3.105
			c-1.112,0.955-2.15,1.993-3.105,3.105C733.723,692.259,741.736,695.809,750.124,695.729z"/>
		<g>
			<path fill="#283035" d="M779.113,707.886h-57.979c-0.799,0-1.564-0.318-2.128-0.885c-0.562-0.566-0.877-1.334-0.872-2.133
				c0.103-17.575,14.435-31.803,31.986-31.803c0.063,0,0.127,0.001,0.19,0.001c17.433,0.102,31.7,14.368,31.803,31.802
				c0.005,0.799-0.31,1.566-0.872,2.133C780.678,707.567,779.912,707.886,779.113,707.886z M724.325,701.886h51.595
				c-1.573-12.757-12.501-22.742-25.645-22.819C736.998,678.992,725.902,688.98,724.325,701.886z"/>
		</g>
		<path opacity="0.14" enable-background="new    " d="M375.015,499.781h151.984c4.423,0,8.008,3.585,8.008,8.008v117.984
			c0,4.423-3.585,8.008-8.008,8.008H375.015c-4.423,0-8.008-3.585-8.008-8.008V507.789
			C367.007,503.366,370.592,499.781,375.015,499.781z"/>
		<path fill="#353F49" d="M367.182,492.781h151.984c4.423,0,8.008,3.585,8.008,8.008v117.984c0,4.423-3.585,8.008-8.008,8.008
			H367.182c-4.423,0-8.008-3.585-8.008-8.008V500.789C359.174,496.366,362.759,492.781,367.182,492.781z"/>
		<g>
			<path fill="#283035" d="M519.166,628.781H367.182c-5.519,0-10.008-4.489-10.008-10.008V500.789
				c0-5.519,4.49-10.008,10.008-10.008h151.984c5.519,0,10.008,4.489,10.008,10.008v117.984
				C529.174,624.292,524.685,628.781,519.166,628.781z M367.182,494.781c-3.313,0-6.008,2.695-6.008,6.008v117.984
				c0,3.312,2.695,6.008,6.008,6.008h151.984c3.312,0,6.008-2.695,6.008-6.008V500.789c0-3.312-2.695-6.008-6.008-6.008H367.182z"/>
		</g>
		<path fill="#EAEEEF" d="M367.181,492.781h151.985c4.423,0,8.008,3.585,8.008,8.008v11.992l0,0h-168l0,0v-11.992
			C359.174,496.367,362.759,492.782,367.181,492.781z"/>
		<g>
			<path fill="#283035" d="M527.174,514.781h-168c-1.104,0-2-0.896-2-2v-11.992c0-5.518,4.489-10.007,10.007-10.008l0,0h151.985
				c5.519,0,10.008,4.489,10.008,10.008v11.992C529.174,513.886,528.278,514.781,527.174,514.781z M361.174,510.781h164v-9.992
				c0-3.312-2.695-6.008-6.008-6.008H367.181c-3.312,0-6.007,2.695-6.007,6.008V510.781z"/>
		</g>
		<circle opacity="0.35" fill="#283035" enable-background="new    " cx="373.507" cy="502.781" r="3.125"/>
		<circle opacity="0.35" fill="#283035" enable-background="new    " cx="383.34" cy="502.781" r="3.125"/>
		<circle opacity="0.35" fill="#283035" enable-background="new    " cx="392.674" cy="502.781" r="3.125"/>
		<g>
			<rect x="367.007" y="518.281" fill="#46BB86" width="11" height="3"/>
		</g>
		<g>
			<rect x="382.007" y="518.281" fill="#46BB86" width="30" height="3"/>
		</g>
		<g>
			<rect x="367.007" y="526.281" fill="#389ABE" width="45" height="3"/>
		</g>
		<g>
			<rect x="376.007" y="534.281" fill="#E5C689" width="22" height="3"/>
		</g>
		<g>
			<rect x="402.007" y="534.281" fill="#F2F3F4" width="24" height="3"/>
		</g>
		<g>
			<rect x="388.007" y="542.281" fill="#F2F3F4" width="46" height="3"/>
		</g>
		<g>
			<rect x="388.007" y="550.281" fill="#FFA49F" width="34" height="3"/>
		</g>
		<g>
			<rect x="376.007" y="558.281" fill="#F2F3F4" width="50" height="3"/>
		</g>
		<g>
			<rect x="367.007" y="565.281" fill="#389ABE" width="27" height="3"/>
		</g>
		<g opacity="0.3">
			<path fill="#FFFFFF" d="M599.643,605.522c0-3.952-1.528-6.736-4.582-8.443c-2.156-1.168-3.054-2.067-3.054-4.132v-3.5
				c0-2.425,1.078-2.964,2.964-4.222c3.144-1.347,4.672-4.221,4.672-8.533v-7.636c0-6.108,2.245-10.6,5.479-12.486
				c2.419-1.725,5.294-2.694,8.264-2.785h1.168c2.515,0,3.772,1.258,3.773,3.773v1.342c0,2.425-1.258,3.683-3.773,3.683
				c-3.5,0-5.21,2.515-5.21,7.635v9.432c0.182,4.676-2.38,9.029-6.557,11.139l-0.809,0.269v0.18
				c0.922,0.272,1.778,0.731,2.515,1.348c2.246,1.346,4.851,4.491,4.851,9.97v10.51c0,5.03,1.707,7.546,5.21,7.546
				c2.515,0,3.772,1.257,3.773,3.772v1.348c0,2.515-1.258,3.772-3.773,3.773h-1.168c-2.969-0.091-5.845-1.06-8.264-2.785
				c-3.234-1.886-5.479-6.467-5.479-12.486V605.522z"/>
		</g>
		<g>
			<path fill="#283035" d="M177.755,662.688c-9.439,0-18.879-2.987-26.727-8.96l-1.06,1.03c-0.593,0.577-1.543,0.566-2.121-0.029
				c-0.578-0.594-0.564-1.544,0.029-2.121l2-1.945c0.545-0.53,1.399-0.57,1.99-0.09c15.001,12.158,36.776,12.158,51.775,0
				c0.592-0.481,1.449-0.44,1.993,0.093l2.5,2.443c0.593,0.578,0.604,1.528,0.024,2.121c-0.579,0.592-1.529,0.604-2.121,0.023
				l-1.56-1.523C196.632,659.701,187.193,662.688,177.755,662.688z"/>
		</g>
		<g>
			<path fill="#283035" d="M163.062,649.021c-0.829,0-1.5-0.672-1.5-1.5V643.6c0-3.188,2.593-5.78,5.781-5.78
				c3.188,0,5.781,2.593,5.781,5.78c0,0.828-0.671,1.5-1.5,1.5s-1.5-0.672-1.5-1.5c0-1.533-1.248-2.78-2.781-2.78
				c-1.533,0-2.781,1.247-2.781,2.78v3.922C164.562,648.35,163.891,649.021,163.062,649.021z"/>
		</g>
		<g>
			<path fill="#283035" d="M192.95,649.021c-0.829,0-1.5-0.672-1.5-1.5V643.6c0-1.533-1.248-2.78-2.781-2.78
				c-1.533,0-2.781,1.247-2.781,2.78c0,0.828-0.671,1.5-1.5,1.5s-1.5-0.672-1.5-1.5c0-3.188,2.593-5.78,5.781-5.78
				c3.188,0,5.781,2.593,5.781,5.78v3.922C194.45,648.35,193.779,649.021,192.95,649.021z"/>
		</g>
		<path fill="#E5E5E5" d="M802.841,574.886h77.8c5.026,0,9.1,4.074,9.1,9.1v111.8c0,5.026-4.074,9.1-9.1,9.1h-77.8
			c-5.026,0-9.1-4.074-9.1-9.1v-111.8C793.741,578.96,797.815,574.886,802.841,574.886z"/>
		<path fill="#CFD1D0" d="M880.641,574.886h-1.153c0.166,0.688,0.251,1.393,0.253,2.1v111.8c0,5.026-4.074,9.1-9.1,9.1H794
			c0.972,4.1,4.633,6.997,8.847,7h77.8c5.026,0,9.1-4.074,9.1-9.1v-111.8c0-5.026-4.074-9.1-9.1-9.1
			C880.645,574.886,880.643,574.886,880.641,574.886z"/>
		<g>
			<path fill="#283035" d="M880.641,707.886h-77.8c-6.672,0-12.1-5.428-12.1-12.1v-111.8c0-6.672,5.428-12.101,12.1-12.101h77.8
				c6.672,0,12.101,5.429,12.101,12.101v111.8C892.741,702.458,887.312,707.886,880.641,707.886z M802.841,577.886
				c-3.363,0-6.1,2.736-6.1,6.101v111.8c0,3.363,2.736,6.1,6.1,6.1h77.8c3.364,0,6.101-2.736,6.101-6.1v-111.8
				c0-3.364-2.736-6.101-6.101-6.101H802.841z"/>
		</g>
		<path fill="#F7B66F" d="M857.741,567.342h-8v-3c0-4.418-3.582-8-8-8s-8,3.582-8,8v3h-8c-4.418,0-8,3.582-8,8s3.582,8,8,8h32
			c4.418,0,8-3.582,8-8S862.159,567.342,857.741,567.342z"/>
		<path fill="#EDA762" d="M861.458,568.262c1.163,4.248-1.337,8.634-5.585,9.797c-0.695,0.19-1.412,0.285-2.132,0.283h-32
			c-1.295,0.001-2.571-0.315-3.717-0.919c0.94,3.49,4.103,5.916,7.717,5.919h32c4.418-0.004,7.997-3.589,7.992-8.008
			C865.73,572.366,864.085,569.644,861.458,568.262z"/>
		<path fill="#EDA762" d="M845.741,559.342v3h3.738c-0.564-2.185-2.024-4.029-4.021-5.08
			C845.644,557.94,845.739,558.639,845.741,559.342z"/>
		<g>
			<path fill="#283035" d="M857.741,586.342h-32c-6.065,0-11-4.935-11-11s4.935-11,11-11h5c0-6.065,4.935-11,11-11s11,4.935,11,11h5
				c6.065,0,11,4.935,11,11S863.807,586.342,857.741,586.342z M825.741,570.342c-2.757,0-5,2.243-5,5s2.243,5,5,5h32
				c2.757,0,5-2.243,5-5s-2.243-5-5-5h-8c-1.657,0-3-1.343-3-3v-3c0-2.757-2.243-5-5-5s-5,2.243-5,5v3c0,1.657-1.343,3-3,3H825.741z
				"/>
		</g>
		<circle fill="#8EAFBF" cx="841.741" cy="604.009" r="8.333"/>
		<g>
			<path fill="#283035" d="M841.741,615.342c-6.249,0-11.333-5.084-11.333-11.333s5.084-11.333,11.333-11.333
				s11.333,5.084,11.333,11.333S847.99,615.342,841.741,615.342z M841.741,598.676c-2.94,0-5.333,2.393-5.333,5.333
				s2.393,5.333,5.333,5.333s5.333-2.393,5.333-5.333S844.682,598.676,841.741,598.676z"/>
		</g>
		<g>
			<path fill="#283035" d="M829.964,632.676h-20c-1.657,0-3-1.343-3-3s1.343-3,3-3h20c1.657,0,3,1.343,3,3
				S831.621,632.676,829.964,632.676z"/>
		</g>
		<g>
			<path fill="#283035" d="M829.964,659.842h-20c-1.657,0-3-1.343-3-3s1.343-3,3-3h20c1.657,0,3,1.343,3,3
				S831.621,659.842,829.964,659.842z"/>
		</g>
		<g>
			<path fill="#283035" d="M829.964,687.009h-20c-1.657,0-3-1.343-3-3s1.343-3,3-3h20c1.657,0,3,1.343,3,3
				S831.621,687.009,829.964,687.009z"/>
		</g>
		<g>
			<path fill="#8BAFC1" d="M848.394,637.541c-0.607,0-1.207-0.275-1.601-0.798l-5.214-6.935c-0.664-0.883-0.486-2.137,0.396-2.801
				c0.885-0.662,2.137-0.485,2.801,0.396l4.012,5.336l14.006-10.528c0.885-0.663,2.138-0.484,2.801,0.396
				c0.664,0.883,0.486,2.137-0.396,2.801l-15.604,11.73C849.233,637.41,848.812,637.541,848.394,637.541z"/>
		</g>
		<g>
			<path fill="#8BAFC1" d="M848.392,664.708c-0.094,0-0.188-0.007-0.28-0.02c-0.525-0.074-1-0.354-1.318-0.778l-5.214-6.937
				c-0.664-0.884-0.486-2.137,0.396-2.801c0.885-0.663,2.139-0.485,2.801,0.396l4.012,5.338l14.006-10.529
				c0.885-0.663,2.138-0.484,2.801,0.396c0.664,0.883,0.486,2.137-0.396,2.801l-15.604,11.731
				C849.245,664.568,848.822,664.708,848.392,664.708z"/>
		</g>
		
			<rect x="894.103" y="630.916" transform="matrix(0.9905 -0.1378 0.1378 0.9905 -82.7858 130.2451)" fill="#3BBC88" width="10" height="64"/>
		<g>
			<path fill="#283035" d="M898.561,697.3c-0.433,0-0.856-0.141-1.206-0.404c-0.423-0.32-0.702-0.795-0.774-1.32l-8.82-63.39
				c-0.073-0.525,0.065-1.058,0.385-1.481c0.32-0.423,0.795-0.702,1.32-0.774l9.904-1.378c1.083-0.161,2.104,0.61,2.256,1.705
				l8.82,63.389c0.152,1.094-0.61,2.104-1.705,2.256l-9.904,1.379C898.744,697.294,898.652,697.3,898.561,697.3z M891.997,633.615
				l8.269,59.428l5.942-0.827l-8.269-59.427L891.997,633.615z"/>
		</g>
		<polygon fill="#E5E5E5" points="908.467,693.92 898.562,695.298 904.893,704.513 		"/>
		<g>
			<path fill="#283035" d="M904.893,706.513c-0.653,0-1.272-0.32-1.648-0.867l-6.33-9.215c-0.393-0.571-0.461-1.306-0.182-1.939
				c0.28-0.635,0.868-1.079,1.555-1.174l9.904-1.378c0.686-0.101,1.374,0.171,1.815,0.705c0.442,0.533,0.576,1.258,0.355,1.915
				l-3.574,10.593c-0.242,0.718-0.869,1.237-1.62,1.341C905.076,706.507,904.983,706.513,904.893,706.513z M902.043,696.833
				l2.233,3.25l1.261-3.736L902.043,696.833z"/>
		</g>
		
			<rect x="890.707" y="620.829" transform="matrix(0.9904 -0.1381 0.1381 0.9904 -77.8429 129.3771)" fill="#E5E5E5" width="5.997" height="9.996"/>
		<g>
			<path fill="#283035" d="M891.426,633.189c-0.433,0-0.855-0.141-1.205-0.403c-0.423-0.32-0.702-0.795-0.775-1.319l-1.38-9.899
				c-0.152-1.094,0.611-2.104,1.704-2.257l5.939-0.828c1.096-0.146,2.104,0.61,2.256,1.704l1.381,9.899
				c0.074,0.525-0.064,1.058-0.384,1.481c-0.32,0.423-0.795,0.702-1.319,0.775l-5.94,0.828
				C891.609,633.184,891.518,633.189,891.426,633.189z M892.302,622.995l0.828,5.939l1.98-0.276l-0.829-5.939L892.302,622.995z"/>
		</g>
		<g>
			<path fill="#283035" d="M908.602,657.545c-0.676,0-1.335-0.342-1.712-0.962c-1.242-2.047-2.116-4.275-2.596-6.622
				c-0.639-3.137-0.162-5.574,0.22-7.533c0.347-1.776,0.508-2.744,0.082-3.637c-0.066-0.141-0.131-0.286-0.196-0.437
				c-0.388-0.885-0.693-1.584-3.574-2c-1.093-0.158-1.852-1.172-1.693-2.266s1.17-1.844,2.266-1.693
				c4.688,0.677,5.899,2.604,6.666,4.355c0.048,0.108,0.094,0.215,0.143,0.316c1.015,2.128,0.617,4.16,0.233,6.127
				c-0.347,1.776-0.705,3.614-0.227,5.968c0.387,1.893,1.093,3.691,2.097,5.345c0.573,0.944,0.272,2.175-0.672,2.748
				C909.313,657.451,908.955,657.545,908.602,657.545z"/>
		</g>
		<g>
			<path fill="#283035" d="M946.5,707.886h-25.75c-1.657,0-3-1.343-3-3s1.343-3,3-3h25.75c1.657,0,3,1.343,3,3
				S948.157,707.886,946.5,707.886z"/>
		</g>
		<g>
			<path fill="#283035" d="M909.5,707.886H234.333c-1.657,0-3-1.343-3-3s1.343-3,3-3H909.5c1.657,0,3,1.343,3,3
				S911.157,707.886,909.5,707.886z"/>
		</g>
		<g>
			<path fill="#283035" d="M222.616,707.886H114.75c-1.657,0-3-1.343-3-3s1.343-3,3-3h107.866c1.657,0,3,1.343,3,3
				S224.273,707.886,222.616,707.886z"/>
		</g>
		<g>
			<path fill="#283035" d="M103.5,707.886H80.333c-1.657,0-3-1.343-3-3s1.343-3,3-3H103.5c1.657,0,3,1.343,3,3
				S105.157,707.886,103.5,707.886z"/>
		</g>
		
			<ellipse transform="matrix(0.1602 -0.9871 0.9871 0.1602 223.1606 669.4578)" fill="#FFFFFF" cx="505.007" cy="203.582" rx="24" ry="24"/>
		<path fill="#F7B66F" d="M436.111,209c-4.767-0.016-8.619-3.893-8.603-8.661c0.001-0.345,0.023-0.689,0.065-1.031
			C432.238,159.7,465.127,129,505.007,129s72.769,30.7,77.433,70.308c0.586,4.731-2.774,9.041-7.505,9.627
			c-0.344,0.043-0.689,0.064-1.035,0.065H436.111z"/>
		<path fill="#EFAA65" d="M517.007,129.944L517.007,129.944c-0.258-0.041-0.519-0.07-0.778-0.108
			c-0.909-0.134-1.823-0.255-2.742-0.357c-0.418-0.047-0.837-0.085-1.257-0.125c-0.762-0.072-1.525-0.137-2.289-0.181
			c-0.444-0.026-0.885-0.059-1.33-0.08c-1.195-0.056-2.4-0.093-3.6-0.093s-2.4,0.036-3.588,0.093
			c-0.549,0.026-1.094,0.069-1.64,0.106c-0.59,0.041-1.18,0.083-1.767,0.138c-0.72,0.065-1.436,0.143-2.15,0.229
			c-0.349,0.042-0.7,0.089-1.044,0.136c-36.024,4.823-64.327,34.836-67.512,72.249c-0.315,3.564,2.318,6.708,5.882,7.024
			c0.186,0.016,0.372,0.025,0.558,0.025h142.518c3.562,0.01,6.457-2.868,6.468-6.43c0.001-0.172-0.006-0.343-0.019-0.514
			C579.629,165.22,552.2,135.518,517.007,129.944z M454.031,186.929c6.905-25.09,25.68-45.196,50.24-53.8
			c24.582,8.587,43.381,28.696,50.294,53.8c1.551,5.738-1.842,11.647-7.58,13.198c-0.927,0.251-1.884,0.376-2.844,0.373h-79.685
			c-5.943,0.021-10.778-4.78-10.798-10.724C453.654,188.815,453.78,187.857,454.031,186.929z"/>
		<g>
			<path fill="#283035" d="M436.178,212c-0.003,0-0.005,0-0.008,0c-3.123-0.009-6.055-1.232-8.256-3.447
				c-2.202-2.214-3.41-5.153-3.401-8.275c0.001-0.468,0.031-0.941,0.089-1.406C429.53,157.335,464.098,126,505.007,126
				c40.911,0,75.478,31.335,80.404,72.888c0.383,3.082-0.462,6.145-2.382,8.607c-1.919,2.463-4.682,4.031-7.781,4.416
				c-0.464,0.058-0.938,0.087-1.407,0.089H436.178z M436.178,206h137.654c0.221,0,0.45-0.015,0.678-0.043
				c1.508-0.188,2.853-0.951,3.787-2.149c0.934-1.198,1.345-2.689,1.157-4.196C574.884,161.059,542.879,132,505.007,132
				c-37.871,0-69.877,29.06-74.45,67.595c-0.03,0.243-0.044,0.471-0.045,0.7c-0.004,1.52,0.584,2.95,1.655,4.028
				c1.07,1.076,2.495,1.672,4.013,1.678H436.178z"/>
		</g>
		<g>
			<rect x="502.007" fill="#283035" width="6" height="129"/>
		</g>
	</g>
</g>
</svg>